<svg width="23" height="29" viewBox="0 0 23 29" fill="none" xmlns="http://www.w3.org/2000/svg">
<path fill-rule="evenodd" clip-rule="evenodd" d="M4.27744 0.0111988H21.338V13.4496H11.6161C11.1653 13.449 10.7326 13.6273 10.4132 13.9454C10.0938 14.2636 9.91363 14.6954 9.91238 15.1463V21.2484H4.03911C2.44868 21.3924 3.01264 23.5137 4.03911 23.4028H9.91238V24.703H4.10754C1.71953 24.736 0.929036 24.6086 0.929036 22.8601V20.9299C0.669738 20.8833 0.435064 20.747 0.266047 20.5449C0.0970305 20.3429 0.00442626 20.0878 0.00442626 19.8243C0.00442626 19.5609 0.0970305 19.3058 0.266047 19.1037C0.435064 18.9017 0.669738 18.7654 0.929036 18.7188V16.9467C0.669738 16.9001 0.435064 16.7639 0.266047 16.5618C0.0970305 16.3597 0.00442626 16.1046 0.00442626 15.8412C0.00442626 15.5777 0.0970305 15.3227 0.266047 15.1206C0.435064 14.9185 0.669738 14.7823 0.929036 14.7357V12.9635C0.669738 12.917 0.435064 12.7807 0.266047 12.5786C0.0970305 12.3765 0.00442626 12.1215 0.00442626 11.858C0.00442626 11.5946 0.0970305 11.3395 0.266047 11.1374C0.435064 10.9353 0.669738 10.7991 0.929036 10.7525V8.98038C0.662721 8.94841 0.418592 8.81617 0.246317 8.61058C0.0740421 8.40499 -0.0134371 8.14149 0.00167718 7.87369C-0.0123022 7.60615 0.0755867 7.34325 0.247652 7.13791C0.419717 6.93257 0.663181 6.80004 0.929036 6.76699V4.99723C0.662952 4.96471 0.419156 4.83233 0.246987 4.62686C0.0748173 4.4214 -0.0128675 4.1582 0.00167718 3.89053C-0.0128675 3.62286 0.0748173 3.35966 0.246987 3.1542C0.419156 2.94874 0.662952 2.81635 0.929036 2.78384C0.931395 0.471338 1.06354 -0.0902679 4.27744 0.0111988ZM12.5576 15.2454H21.5905C21.7985 15.2466 21.9977 15.3298 22.1447 15.4769C22.2918 15.624 22.375 15.8231 22.3763 16.0311V28.2095C22.3755 28.3129 22.3542 28.4152 22.3137 28.5104C22.2732 28.6055 22.2143 28.6918 22.1403 28.764C22.0683 28.8384 21.9822 28.8977 21.8869 28.9382C21.7917 28.9787 21.6893 28.9997 21.5858 29H12.5576C12.3496 28.9988 12.1504 28.9156 12.0033 28.7685C11.8562 28.6214 11.7731 28.4222 11.7718 28.2142V16.0311C11.7731 15.8231 11.8562 15.624 12.0033 15.4769C12.1504 15.3298 12.3496 15.2466 12.5576 15.2454V15.2454ZM20.6065 17.185H13.5439V19.3229H20.6065V17.185ZM19.2733 23.5774H20.531C20.5829 23.5774 20.6327 23.5981 20.6695 23.6348C20.7062 23.6715 20.7268 23.7213 20.7268 23.7733V24.8375C20.7268 24.8894 20.7062 24.9393 20.6695 24.976C20.6327 25.0127 20.5829 25.0334 20.531 25.0334H19.2733C19.2211 25.0334 19.171 25.0128 19.1339 24.9761C19.0968 24.9395 19.0757 24.8897 19.0751 24.8375V23.7733C19.0757 23.7211 19.0968 23.6713 19.1339 23.6346C19.171 23.598 19.2211 23.5774 19.2733 23.5774ZM19.2733 21.0526H20.531C20.5831 21.0532 20.633 21.0743 20.6696 21.1114C20.7063 21.1485 20.7268 21.1986 20.7268 21.2508V22.3126C20.7268 22.3646 20.7062 22.4144 20.6695 22.4511C20.6327 22.4879 20.5829 22.5085 20.531 22.5085H19.2733C19.2211 22.5085 19.171 22.4879 19.1339 22.4513C19.0968 22.4146 19.0757 22.3648 19.0751 22.3126V21.2508C19.0757 21.1984 19.0968 21.1483 19.1338 21.1113C19.1708 21.0743 19.2209 21.0532 19.2733 21.0526ZM19.2733 26.1023H20.531C20.5829 26.1023 20.6327 26.1229 20.6695 26.1597C20.7062 26.1964 20.7268 26.2462 20.7268 26.2982V27.3718C20.7268 27.424 20.7063 27.474 20.6696 27.5111C20.633 27.5482 20.5831 27.5694 20.531 27.57H19.2733C19.2207 27.57 19.1703 27.5491 19.1331 27.512C19.0959 27.4748 19.0751 27.4244 19.0751 27.3718V26.31C19.0763 26.258 19.0976 26.2085 19.1346 26.172C19.1716 26.1354 19.2213 26.1147 19.2733 26.1141V26.1023ZM16.4416 23.5774H17.6994C17.7515 23.5774 17.8016 23.598 17.8387 23.6346C17.8758 23.6713 17.897 23.7211 17.8976 23.7733V24.8375C17.897 24.8897 17.8758 24.9395 17.8387 24.9761C17.8016 25.0128 17.7515 25.0334 17.6994 25.0334H16.4322C16.38 25.0334 16.33 25.0128 16.2929 24.9761C16.2558 24.9395 16.2346 24.8897 16.234 24.8375V23.7733C16.2346 23.7211 16.2558 23.6713 16.2929 23.6346C16.33 23.598 16.38 23.5774 16.4322 23.5774H16.4416ZM16.4416 21.0526H17.6994C17.7517 21.0532 17.8018 21.0743 17.8388 21.1113C17.8759 21.1483 17.897 21.1984 17.8976 21.2508V22.3126C17.897 22.3648 17.8758 22.4146 17.8387 22.4513C17.8016 22.4879 17.7515 22.5085 17.6994 22.5085H16.4322C16.38 22.5085 16.33 22.4879 16.2929 22.4513C16.2558 22.4146 16.2346 22.3648 16.234 22.3126V21.2508C16.2346 21.1984 16.2557 21.1483 16.2927 21.1113C16.3298 21.0743 16.3798 21.0532 16.4322 21.0526H16.4416ZM16.4416 26.1023H17.6994C17.7515 26.1023 17.8016 26.1229 17.8387 26.1595C17.8758 26.1962 17.897 26.246 17.8976 26.2982V27.3718C17.897 27.4242 17.8759 27.4743 17.8388 27.5113C17.8018 27.5483 17.7517 27.5694 17.6994 27.57H16.4322C16.3796 27.57 16.3292 27.5491 16.292 27.512C16.2549 27.4748 16.234 27.4244 16.234 27.3718V26.31C16.2352 26.258 16.2566 26.2085 16.2935 26.172C16.3305 26.1354 16.3802 26.1147 16.4322 26.1141L16.4416 26.1023ZM13.643 21.0526H14.9008C14.9533 21.0526 15.0038 21.0734 15.0409 21.1106C15.0781 21.1478 15.099 21.1982 15.099 21.2508V22.3126C15.0984 22.3648 15.0772 22.4146 15.0401 22.4513C15.003 22.4879 14.9529 22.5085 14.9008 22.5085H13.643C13.5911 22.5085 13.5413 22.4879 13.5046 22.4511C13.4678 22.4144 13.4472 22.3646 13.4472 22.3126V21.2508C13.4472 21.1986 13.4677 21.1485 13.5044 21.1114C13.5411 21.0743 13.5909 21.0532 13.643 21.0526V21.0526ZM13.643 26.1023H14.9008C14.9529 26.1023 15.003 26.1229 15.0401 26.1595C15.0772 26.1962 15.0984 26.246 15.099 26.2982V27.3718C15.099 27.4244 15.0781 27.4748 15.0409 27.512C15.0038 27.5491 14.9533 27.57 14.9008 27.57H13.643C13.5917 27.5682 13.5431 27.5465 13.5074 27.5095C13.4718 27.4726 13.4519 27.4232 13.4519 27.3718V26.31C13.4525 26.2582 13.4734 26.2087 13.51 26.1721C13.5466 26.1355 13.596 26.1147 13.6478 26.1141L13.643 26.1023ZM13.643 23.5774H14.9008C14.9529 23.5774 15.003 23.598 15.0401 23.6346C15.0772 23.6713 15.0984 23.7211 15.099 23.7733V24.8375C15.0984 24.8897 15.0772 24.9395 15.0401 24.9761C15.003 25.0128 14.9529 25.0334 14.9008 25.0334H13.643C13.5911 25.0334 13.5413 25.0127 13.5046 24.976C13.4678 24.9393 13.4472 24.8894 13.4472 24.8375V23.7733C13.4472 23.7213 13.4678 23.6715 13.5046 23.6348C13.5413 23.5981 13.5911 23.5774 13.643 23.5774V23.5774ZM21.5905 15.7692H12.5576C12.4885 15.7698 12.4225 15.7977 12.3739 15.8468C12.3253 15.8958 12.298 15.9621 12.298 16.0311V28.2095C12.298 28.2786 12.3253 28.3448 12.3739 28.3939C12.4225 28.4429 12.4885 28.4708 12.5576 28.4714H21.5905C21.6596 28.4702 21.7255 28.4422 21.7744 28.3934C21.8232 28.3445 21.8512 28.2786 21.8524 28.2095V16.0311C21.8512 15.9621 21.8232 15.8961 21.7744 15.8473C21.7255 15.7984 21.6596 15.7704 21.5905 15.7692ZM11.3895 5.01846C11.2698 5.00197 11.1609 4.94015 11.0854 4.84575C11.0099 4.75136 10.9735 4.63158 10.9837 4.51113C10.9754 4.39184 11.0126 4.27384 11.088 4.18098C11.1633 4.08813 11.2711 4.02733 11.3895 4.01087H18.5323C18.6521 4.02737 18.7609 4.08919 18.8365 4.18358C18.912 4.27798 18.9484 4.39775 18.9382 4.51821C18.9484 4.63866 18.912 4.75844 18.8365 4.85283C18.7609 4.94723 18.6521 5.00905 18.5323 5.02554L11.3895 5.01846ZM11.3895 10.1602C11.2737 10.1351 11.1699 10.0711 11.0955 9.97875C11.021 9.88646 10.9805 9.77146 10.9805 9.65289C10.9805 9.53433 11.021 9.41933 11.0955 9.32704C11.1699 9.23474 11.2737 9.1707 11.3895 9.14556H16.0853C16.2012 9.1707 16.305 9.23474 16.3794 9.32704C16.4538 9.41933 16.4944 9.53433 16.4944 9.65289C16.4944 9.77146 16.4538 9.88646 16.3794 9.97875C16.305 10.0711 16.2012 10.1351 16.0853 10.1602H11.3895ZM11.3895 7.58817C11.2693 7.57166 11.1601 7.50951 11.0845 7.4146C11.009 7.31968 10.9728 7.19931 10.9837 7.07847C10.9741 6.95841 11.0108 6.83922 11.0863 6.74534C11.1617 6.65146 11.2702 6.58998 11.3895 6.5735H17.0646C17.1826 6.59161 17.2894 6.65378 17.3634 6.74749C17.4374 6.84119 17.4731 6.95947 17.4634 7.07847C17.4736 7.19893 17.4372 7.3187 17.3617 7.4131C17.2861 7.50749 17.1773 7.56931 17.0575 7.58581L11.3895 7.58817ZM6.37284 10.2192C6.17227 10.2074 6.13687 10.1909 5.94574 10.1649C5.7546 10.139 5.61066 10.1178 5.45256 10.0894C5.29446 10.0611 5.14344 10.0257 4.99714 9.98797V8.68778C5.18828 8.7043 5.39593 8.71846 5.61774 8.7279C5.83955 8.73734 6.06372 8.74913 6.29261 8.75385C6.5215 8.75857 6.73387 8.75385 6.92973 8.75385C7.08813 8.75734 7.24643 8.7431 7.40167 8.71138C7.50528 8.69361 7.60178 8.64699 7.68011 8.57688C7.71208 8.54286 7.7369 8.50278 7.75311 8.45901C7.76932 8.41524 7.77659 8.36866 7.7745 8.32203V8.22056C7.77761 8.16679 7.76713 8.1131 7.74404 8.06444C7.72095 8.01578 7.68598 7.97371 7.64236 7.94212C7.55163 7.87955 7.44341 7.84733 7.33324 7.85009H6.88489C6.23047 7.85009 5.73494 7.70615 5.39829 7.41827C5.06164 7.13039 4.89253 6.64901 4.89096 5.97414V5.70513C4.87182 5.4467 4.91205 5.18732 5.00857 4.94683C5.1051 4.70635 5.25535 4.49112 5.44784 4.31763C5.69794 4.07246 6.0243 3.9201 6.37284 3.88581V3.3478H7.63764V3.86693C8.10124 3.90064 8.56042 3.97968 9.00862 4.1029V5.40309C8.74905 5.38185 8.45881 5.36298 8.13317 5.34882C7.80753 5.33466 7.51493 5.32758 7.25065 5.32758C7.10906 5.32622 6.96765 5.33807 6.82826 5.36298C6.72121 5.37631 6.62119 5.42343 6.54274 5.49748C6.50653 5.53707 6.47883 5.58369 6.46138 5.63442C6.44393 5.68516 6.43708 5.73895 6.44127 5.79244V5.87739C6.43745 5.93763 6.4476 5.99794 6.47093 6.0536C6.49426 6.10927 6.53015 6.1588 6.57578 6.19831C6.69724 6.28004 6.84277 6.31829 6.98872 6.30685H7.55269C7.89488 6.29848 8.23331 6.37984 8.53432 6.54282C8.78787 6.68238 8.99407 6.89433 9.1266 7.15162C9.26226 7.42236 9.33027 7.72194 9.32481 8.02471V8.30315C9.35192 8.72968 9.25523 9.15496 9.04637 9.52783C8.86057 9.80253 8.58134 10.0004 8.26059 10.0847C8.06385 10.1564 7.85822 10.2009 7.64943 10.2169V10.8186H6.37284V10.2192Z" fill="black"/>
</svg>
