<svg width="29" height="29" viewBox="0 0 29 29" fill="none" xmlns="http://www.w3.org/2000/svg">
<g clip-path="url(#clip0_1639_634)">
<path d="M4.16975 12.527H6.10969L7.71923 9.26546L10.6527 13.4923L13.65 7.6512L16.7794 13.7873L17.8508 12.8055L18.5588 12.527H21.136V12.6521C21.135 13.316 21.0558 13.9774 20.9 14.6227H18.9624L16.1658 17.1904L13.6405 12.2344L10.9218 17.5421L8.02367 13.3695L7.40771 14.6322H4.39631C4.24167 13.9866 4.16247 13.3253 4.16031 12.6615V12.5365L4.16975 12.527ZM12.6517 1.09973e-07C14.9336 -0.000300656 17.1732 0.61633 19.1334 1.78463C21.0935 2.95293 22.7014 4.62944 23.7868 6.63672C24.8722 8.64399 25.3947 10.9074 25.2991 13.1873C25.2034 15.4672 24.4932 17.6789 23.2435 19.5882L28.7211 25.5567L24.9451 29.0094L19.661 23.1896C18.0167 24.2838 16.1391 24.9779 14.1785 25.2163C12.218 25.4548 10.2288 25.2311 8.37013 24.563C6.51151 23.8949 4.83506 22.8011 3.47494 21.369C2.11481 19.9369 1.10878 18.2064 0.537339 16.3158C-0.0341034 14.4252 -0.155088 12.4271 0.184066 10.4814C0.523221 8.53573 1.3131 6.69642 2.49049 5.11069C3.66788 3.52496 5.2001 2.23684 6.96454 1.34939C8.72898 0.461947 10.6766 -0.000176469 12.6517 1.09973e-07V1.09973e-07ZM19.6374 5.66406C18.0216 4.05207 15.8971 3.05003 13.6255 2.8286C11.3539 2.60717 9.07584 3.18006 7.17923 4.44968C5.28262 5.7193 3.88479 7.60714 3.2238 9.79167C2.56281 11.9762 2.67955 14.3223 3.55414 16.4304C4.42872 18.5385 6.00706 20.2783 8.02034 21.3534C10.0336 22.4284 12.3573 22.7723 14.5957 22.3265C16.8341 21.8807 18.8487 20.6727 20.2964 18.9082C21.7441 17.1438 22.5354 14.9321 22.5355 12.6497C22.536 11.3519 22.2803 10.0667 21.783 8.86792C21.2857 7.66913 20.5565 6.58036 19.6374 5.66406V5.66406Z" fill="black"/>
</g>
<defs>
<clipPath id="clip0_1639_634">
<rect width="28.7215" height="29" fill="white"/>
</clipPath>
</defs>
</svg>
