<svg width="30" height="29" viewBox="0 0 30 29" fill="none" xmlns="http://www.w3.org/2000/svg">
<path fill-rule="evenodd" clip-rule="evenodd" d="M10.1307 15.0179C9.94145 14.9852 9.76979 14.8868 9.64605 14.7398C9.52231 14.5929 9.45446 14.407 9.45446 14.2149C9.45446 14.0228 9.52231 13.8369 9.64605 13.6899C9.76979 13.543 9.94145 13.4445 10.1307 13.4118H19.0545C19.2438 13.4445 19.4155 13.543 19.5392 13.6899C19.663 13.8369 19.7308 14.0228 19.7308 14.2149C19.7308 14.407 19.663 14.5929 19.5392 14.7398C19.4155 14.8868 19.2438 14.9852 19.0545 15.0179H10.1307ZM24.8469 14.9942V16.0633C24.847 16.1078 24.8312 16.1508 24.8025 16.1847C24.7738 16.2187 24.734 16.2413 24.6901 16.2486C24.6046 16.2486 24.5191 16.2748 24.4335 16.2938C24.2729 16.3246 24.1142 16.3651 23.9584 16.4149C23.6658 16.5061 23.3863 16.6346 23.1268 16.7975C23.0045 16.8738 22.8878 16.9588 22.7775 17.0517C22.6698 17.1414 22.569 17.2391 22.4758 17.3439C22.3802 17.4495 22.2928 17.5623 22.2145 17.6813C21.8916 18.1749 21.7259 18.7547 21.7393 19.3444C21.7391 19.5134 21.7479 19.6824 21.7654 19.8505C21.7838 20.0041 21.8116 20.1564 21.8486 20.3066C21.8845 20.4437 21.9305 20.5779 21.9864 20.7082C22.0385 20.8299 22.1013 20.9468 22.1741 21.0574L22.1883 21.0788C22.3385 21.3003 22.5157 21.5022 22.7158 21.6799C22.821 21.7767 22.9312 21.8679 23.046 21.9531C23.1646 22.0386 23.2875 22.1179 23.4143 22.1907C23.6733 22.3309 23.9702 22.5019 24.2363 22.6207L24.6901 22.8346L25.3649 23.1316C25.4789 23.1886 25.574 23.2361 25.6856 23.2979L25.8258 23.3905C25.8662 23.419 25.9018 23.4475 25.9327 23.4737C25.9652 23.5022 25.9954 23.5331 26.023 23.5663L26.0895 23.6519C26.1162 23.6909 26.1392 23.7322 26.1584 23.7754C26.1739 23.8075 26.1867 23.8409 26.1964 23.8752V23.8752C26.2105 23.9163 26.2217 23.9584 26.2297 24.0011V24.0011C26.2398 24.0529 26.2462 24.1053 26.2487 24.1579C26.2487 24.215 26.2487 24.272 26.2487 24.329V24.443C26.2393 24.5136 26.225 24.5835 26.2059 24.6521C26.1854 24.7157 26.1583 24.777 26.1252 24.8351C26.087 24.8965 26.0398 24.9518 25.985 24.999L25.9042 25.0584C25.8361 25.0978 25.7624 25.1266 25.6856 25.1439V25.1439C25.5996 25.1676 25.5111 25.1811 25.4219 25.1843C25.334 25.1843 25.2722 25.1843 25.1843 25.1677C25.0338 25.1432 24.8889 25.0917 24.7567 25.0156C24.7261 24.996 24.6967 24.9746 24.6687 24.9515L24.5808 24.8731C24.5524 24.8451 24.5262 24.8149 24.5024 24.7828C24.4773 24.7502 24.4543 24.7161 24.4335 24.6806C24.4121 24.6426 24.3884 24.5998 24.3694 24.5595C24.3503 24.5185 24.3336 24.4764 24.3195 24.4335C24.3021 24.3862 24.2878 24.3378 24.2767 24.2886V24.2886C24.2633 24.2322 24.253 24.1751 24.2458 24.1175C24.2458 24.0605 24.2316 23.9964 24.2268 23.9298C24.2268 23.8586 24.2268 23.7897 24.2268 23.7208C24.2267 23.6931 24.2156 23.6666 24.1959 23.6471C24.186 23.6371 24.1742 23.6292 24.1611 23.6239C24.148 23.6186 24.134 23.616 24.1199 23.6162H21.4376C21.4099 23.6164 21.3834 23.6275 21.3639 23.6471C21.354 23.6566 21.3461 23.668 21.3408 23.6807C21.3355 23.6934 21.3328 23.707 21.333 23.7208C21.333 23.9037 21.333 24.0724 21.3544 24.2292C21.3758 24.386 21.3924 24.5428 21.4209 24.7044C21.4489 24.8461 21.4862 24.9858 21.5326 25.1225C21.5742 25.2516 21.6242 25.3778 21.6823 25.5003L21.6965 25.5288C21.7535 25.6452 21.8177 25.7664 21.8866 25.8709C21.9556 25.9777 22.0302 26.0808 22.1099 26.1798C22.1883 26.2759 22.2724 26.3671 22.3618 26.453C22.4468 26.538 22.5373 26.6174 22.6326 26.6906L22.654 26.7073C22.7503 26.7782 22.8502 26.844 22.9534 26.9044C23.0579 26.9686 23.1648 27.0256 23.2765 27.0803C23.3881 27.1349 23.4974 27.1777 23.6139 27.2228C23.7303 27.268 23.8514 27.3012 23.9631 27.3345C24.0748 27.3677 24.1508 27.382 24.2435 27.401C24.3361 27.42 24.4383 27.4414 24.5286 27.4557C24.5722 27.4624 24.612 27.4846 24.6408 27.5182C24.6695 27.5517 24.6853 27.5944 24.6854 27.6386V28.6602C24.6928 28.7573 24.7221 28.8515 24.7709 28.9358C24.7899 28.9715 24.7709 29 24.7923 29H26.0254C26.0395 29.0003 26.0535 28.9978 26.0667 28.9925C26.0798 28.9872 26.0917 28.9794 26.1017 28.9694C26.1117 28.9594 26.1196 28.9475 26.1248 28.9344C26.1301 28.9212 26.1326 28.9072 26.1323 28.8931V27.6433C26.1322 27.5995 26.1477 27.5571 26.176 27.5236C26.2043 27.4901 26.2435 27.4677 26.2867 27.4604L26.4435 27.4343C26.6038 27.4036 26.7624 27.3648 26.9187 27.3179C27.2091 27.2284 27.4881 27.1056 27.7503 26.952C27.8688 26.8818 27.9816 26.8023 28.0876 26.7144V26.7144C28.197 26.6257 28.2995 26.5288 28.3941 26.4245C28.4903 26.3194 28.5777 26.2065 28.6555 26.0871C28.7363 25.9694 28.8063 25.8445 28.8645 25.7141C28.9243 25.5817 28.9743 25.4452 29.0142 25.3055C29.0538 25.1588 29.0831 25.0095 29.1021 24.8588C29.1222 24.7012 29.1325 24.5425 29.133 24.3836C29.1335 24.2161 29.124 24.0487 29.1045 23.8823C29.0856 23.7294 29.057 23.5779 29.019 23.4285C28.9822 23.2877 28.9337 23.1502 28.874 23.0175C28.8195 22.8948 28.7543 22.7772 28.6792 22.6659V22.6659C28.6066 22.555 28.5273 22.4487 28.4416 22.3475C28.3511 22.2435 28.2543 22.1451 28.1518 22.0529C28.0504 21.9609 27.9442 21.8744 27.8334 21.7939C27.7194 21.7108 27.5958 21.63 27.4723 21.5563H27.4557C27.3297 21.4827 27.1967 21.4067 27.0541 21.3188C26.9116 21.2309 26.7928 21.1762 26.636 21.0978C26.4792 21.0194 26.3485 20.9529 26.2036 20.884C25.966 20.7794 25.7474 20.6773 25.5217 20.5656L25.3387 20.4658L25.1843 20.3755C25.0917 20.3114 25.0323 20.271 24.9467 20.1997C24.883 20.1419 24.8257 20.0773 24.7757 20.0073C24.7532 19.9778 24.7341 19.9459 24.7186 19.9122V19.9122C24.7033 19.8797 24.6899 19.8464 24.6782 19.8125C24.6661 19.7782 24.6558 19.7433 24.6474 19.7079C24.6393 19.6671 24.6338 19.6258 24.6307 19.5844V19.4561V19.3373C24.6402 19.2612 24.6545 19.1858 24.6735 19.1116L24.7115 19.0023C24.7236 18.9701 24.7388 18.939 24.7567 18.9096C24.7739 18.8802 24.7938 18.8524 24.816 18.8265C24.8607 18.7706 24.9136 18.7217 24.9729 18.6815C25.0003 18.6639 25.0289 18.648 25.0584 18.634L25.1606 18.6008C25.2018 18.5892 25.2439 18.5812 25.2865 18.577C25.3324 18.5746 25.3784 18.5746 25.4243 18.577C25.4849 18.5766 25.5453 18.5822 25.6048 18.5936C25.6584 18.6036 25.7109 18.6187 25.7616 18.6388H25.7735C25.8253 18.6605 25.8747 18.6875 25.9208 18.7195C25.9689 18.7512 26.0135 18.7878 26.0539 18.8288L26.0681 18.8431C26.1152 18.8928 26.1552 18.9488 26.1869 19.0094C26.2169 19.0713 26.2416 19.1357 26.2606 19.2019V19.2256C26.2858 19.3239 26.3033 19.424 26.3129 19.525C26.3129 19.6295 26.3295 19.7483 26.3319 19.8766C26.3317 19.9016 26.34 19.9259 26.3556 19.9455V19.9455C26.3751 19.9651 26.4016 19.9762 26.4293 19.9764H29.095C29.1227 19.9762 29.1492 19.9651 29.1687 19.9455C29.1787 19.9356 29.1866 19.9237 29.1919 19.9106C29.1972 19.8976 29.1998 19.8836 29.1995 19.8695C29.2003 19.6892 29.1899 19.5091 29.1687 19.3301C29.1498 19.1614 29.1205 18.9939 29.0808 18.8288C29.0432 18.6736 28.9948 18.5211 28.9358 18.3727C28.8794 18.2317 28.8127 18.0951 28.7362 17.964L28.7196 17.9331C28.6416 17.8012 28.5542 17.6749 28.4583 17.5554C28.3649 17.4367 28.2624 17.3255 28.1518 17.2227C28.0439 17.095 27.9255 16.9766 27.7978 16.8687C27.6704 16.7804 27.537 16.701 27.3986 16.6311C27.115 16.4883 26.815 16.3806 26.5053 16.3104H26.453C26.4098 16.3031 26.3706 16.2807 26.3423 16.2472C26.314 16.2137 26.2985 16.1713 26.2986 16.1275V15.0108C26.2984 14.9859 26.2901 14.9616 26.2748 14.9419V14.9419C26.2649 14.9319 26.253 14.924 26.24 14.9187C26.2269 14.9134 26.2129 14.9108 26.1988 14.911H24.9467C24.9183 14.911 24.8911 14.9221 24.8707 14.9419C24.8511 14.9614 24.84 14.9879 24.8398 15.0156L24.8469 14.9942ZM18.3703 26.8189C18.5839 26.8189 18.7888 26.9038 18.9398 27.0548C19.0909 27.2059 19.1757 27.4107 19.1757 27.6243C19.1757 27.838 19.0909 28.0428 18.9398 28.1939C18.7888 28.3449 18.5839 28.4298 18.3703 28.4298H1.87457C1.3774 28.4298 0.900598 28.2323 0.549048 27.8807C0.197499 27.5292 0 27.0524 0 26.5552L0 1.87457C0 1.3774 0.197499 0.900598 0.549048 0.549048C0.900598 0.197499 1.3774 0 1.87457 0L24.8945 0C25.3916 0 25.8684 0.197499 26.22 0.549048C26.5715 0.900598 26.769 1.3774 26.769 1.87457V10.7675C26.769 10.9811 26.6842 11.186 26.5331 11.337C26.3821 11.488 26.1772 11.5729 25.9636 11.5729C25.75 11.5729 25.5451 11.488 25.3941 11.337C25.243 11.186 25.1582 10.9811 25.1582 10.7675V1.87457C25.1576 1.80486 25.1294 1.73823 25.0798 1.68925C25.0305 1.64008 24.9641 1.61197 24.8945 1.61085H1.87457C1.80476 1.61214 1.73791 1.63923 1.68687 1.68687C1.6396 1.73815 1.61258 1.80485 1.61085 1.87457V26.5528C1.61085 26.6228 1.63863 26.6898 1.68809 26.7393C1.73755 26.7888 1.80462 26.8165 1.87457 26.8165H18.3703V26.8189ZM10.1307 20.9267C9.94147 20.8897 9.77093 20.7881 9.64834 20.6392C9.52574 20.4903 9.4587 20.3035 9.4587 20.1106C9.4587 19.9178 9.52574 19.7309 9.64834 19.582C9.77093 19.4331 9.94147 19.3315 10.1307 19.2945H17.1467C17.3381 19.3289 17.5114 19.4295 17.6361 19.5787C17.7609 19.7278 17.8293 19.9161 17.8293 20.1106C17.8293 20.3051 17.7609 20.4934 17.6361 20.6426C17.5114 20.7918 17.3381 20.8923 17.1467 20.9267H10.1307ZM10.1307 9.12337C9.93458 9.10468 9.7537 9.00936 9.62738 8.85813C9.50105 8.70689 9.43947 8.51194 9.456 8.31557C9.44015 8.11986 9.5021 7.92579 9.62842 7.77545C9.75474 7.62512 9.93523 7.53065 10.1307 7.51253H19.0545C19.2481 7.53355 19.4258 7.62918 19.5501 7.77912C19.6743 7.92905 19.7351 8.12148 19.7198 8.31557C19.7371 8.51058 19.677 8.70456 19.5526 8.85568C19.4281 9.0068 19.2492 9.10294 19.0545 9.12337H10.1307ZM6.26044 19.007C6.4484 19.007 6.63214 19.0628 6.78843 19.1672C6.94471 19.2716 7.06652 19.42 7.13845 19.5937C7.21038 19.7674 7.2292 19.9584 7.19253 20.1428C7.15586 20.3271 7.06535 20.4965 6.93244 20.6294C6.79953 20.7623 6.63019 20.8528 6.44584 20.8895C6.26149 20.9261 6.07041 20.9073 5.89676 20.8354C5.7231 20.7635 5.57468 20.6417 5.47025 20.4854C5.36583 20.3291 5.31009 20.1453 5.31009 19.9574C5.31009 19.7053 5.41021 19.4636 5.58844 19.2854C5.76666 19.1072 6.00839 19.007 6.26044 19.007ZM6.26044 13.1885C6.4484 13.1885 6.63214 13.2442 6.78843 13.3487C6.94471 13.4531 7.06652 13.6015 7.13845 13.7752C7.21038 13.9488 7.2292 14.1399 7.19253 14.3243C7.15586 14.5086 7.06535 14.6779 6.93244 14.8109C6.79953 14.9438 6.63019 15.0343 6.44584 15.0709C6.26149 15.1076 6.07041 15.0888 5.89676 15.0169C5.7231 14.9449 5.57468 14.8231 5.47025 14.6668C5.36583 14.5106 5.31009 14.3268 5.31009 14.1389C5.31009 13.8868 5.41021 13.6451 5.58844 13.4669C5.76666 13.2886 6.00839 13.1885 6.26044 13.1885ZM6.26044 7.37235C6.4484 7.37235 6.63214 7.42809 6.78843 7.53251C6.94471 7.63694 7.06652 7.78537 7.13845 7.95902C7.21038 8.13267 7.2292 8.32376 7.19253 8.50811C7.15586 8.69246 7.06535 8.86179 6.93244 8.9947C6.79953 9.12761 6.63019 9.21812 6.44584 9.25479C6.26149 9.29146 6.07041 9.27264 5.89676 9.20071C5.7231 9.12878 5.57468 9.00697 5.47025 8.85069C5.36583 8.69441 5.31009 8.51066 5.31009 8.3227C5.31009 8.07065 5.41021 7.82893 5.58844 7.6507C5.76666 7.47248 6.00839 7.37235 6.26044 7.37235Z" fill="black"/>
</svg>
