<svg width="44" height="29" viewBox="0 0 44 29" fill="none" xmlns="http://www.w3.org/2000/svg">
<path fill-rule="evenodd" clip-rule="evenodd" d="M1.69569 17.2778H5.84722C5.97452 17.2788 6.09628 17.33 6.18596 17.4203C6.27565 17.5107 6.32597 17.6328 6.32597 17.7601V28.507C6.32597 28.6339 6.27553 28.7557 6.18575 28.8455C6.09596 28.9353 5.97419 28.9857 5.84722 28.9857H1.69569C1.56838 28.9857 1.44624 28.9354 1.35589 28.8457C1.26554 28.756 1.21431 28.6343 1.21336 28.507V17.7601C1.2143 17.6325 1.26542 17.5104 1.35567 17.4201C1.44592 17.3299 1.56805 17.2787 1.69569 17.2778ZM41.4497 6.28089C41.9291 6.28015 42.3982 6.42004 42.7989 6.68324C43.1996 6.94643 43.5144 7.32137 43.7041 7.76164C43.8939 8.2019 43.9504 8.68816 43.8666 9.16021C43.7828 9.63225 43.5624 10.0694 43.2327 10.4174C42.9029 10.7654 42.4784 11.0091 42.0116 11.1183C41.5447 11.2275 41.0561 11.1973 40.6063 11.0316C40.1564 10.8659 39.765 10.5719 39.4805 10.186C39.1961 9.80005 39.0311 9.33918 39.0059 8.86042L32.675 4.41234C32.2516 4.72409 31.7395 4.89189 31.2137 4.89109C30.664 4.89221 30.13 4.70709 29.6989 4.3659L24.3826 8.41025C24.397 8.51563 24.4042 8.62187 24.4041 8.72822C24.4039 9.06887 24.3326 9.40573 24.1948 9.71725C24.0569 10.0288 23.8556 10.3081 23.6036 10.5373C23.3516 10.7665 23.0546 10.9406 22.7314 11.0485C22.4083 11.1563 22.0662 11.1955 21.7271 11.1635C21.3879 11.1316 21.0592 11.0291 20.7619 10.8628C20.4646 10.6965 20.2053 10.47 20.0006 10.1977C19.7959 9.92543 19.6503 9.61341 19.5731 9.28163C19.4959 8.94984 19.4888 8.60559 19.5523 8.27091L14.1288 4.34089C13.7019 4.68151 13.1735 4.86998 12.6273 4.87645C12.0811 4.88292 11.5484 4.70703 11.1135 4.37662L4.90044 8.81397C4.8817 9.37387 4.67172 9.91045 4.30547 10.3344C3.93921 10.7583 3.43879 11.0439 2.88754 11.1437C2.33629 11.2435 1.76748 11.1514 1.27585 10.8829C0.784223 10.6143 0.399444 10.1854 0.185596 9.66758C-0.0282527 9.14979 -0.0582623 8.57436 0.100565 8.03714C0.259392 7.49991 0.597469 7.03331 1.05849 6.71504C1.51952 6.39677 2.07566 6.24605 2.6343 6.28797C3.19294 6.32988 3.72036 6.56192 4.12873 6.94542L10.1595 2.65812C10.1595 2.58667 10.1595 2.51879 10.1595 2.44733C10.1595 1.79826 10.4174 1.17577 10.8763 0.716807C11.3353 0.257843 11.9578 0 12.6069 0C13.2559 0 13.8784 0.257843 14.3374 0.716807C14.7963 1.17577 15.0542 1.79826 15.0542 2.44733C15.0542 2.49735 15.0542 2.54737 15.0542 2.59382L20.6634 6.64889C21.0529 6.41181 21.5008 6.28808 21.9567 6.29161C22.4566 6.29046 22.9445 6.44396 23.3537 6.73106L28.7735 2.59382C28.7735 2.5438 28.7735 2.49378 28.7735 2.44376C28.7977 1.8104 29.0664 1.21104 29.523 0.771499C29.9797 0.331957 30.5888 0.0864135 31.2227 0.0864135C31.8565 0.0864135 32.4657 0.331957 32.9223 0.771499C33.379 1.21104 33.6476 1.8104 33.6718 2.44376C33.6773 2.52584 33.6773 2.6082 33.6718 2.69028L39.7776 6.97758C40.2243 6.53849 40.8233 6.28889 41.4497 6.28089V6.28089ZM38.0555 16.2846H42.2071C42.273 16.2836 42.3385 16.296 42.3995 16.3211C42.4604 16.3462 42.5157 16.3834 42.5618 16.4306C42.6079 16.4777 42.644 16.5337 42.6678 16.5952C42.6915 16.6567 42.7026 16.7224 42.7001 16.7883V28.507C42.6992 28.6343 42.6479 28.756 42.5576 28.8457C42.4672 28.9354 42.3451 28.9857 42.2178 28.9857H38.0663C37.9393 28.9857 37.8175 28.9353 37.7277 28.8455C37.638 28.7557 37.5875 28.6339 37.5875 28.507V16.7883C37.5875 16.661 37.6378 16.5389 37.7275 16.4486C37.8172 16.3582 37.939 16.307 38.0663 16.306L38.0555 16.2846ZM28.9736 10.1752H33.1252C33.2528 10.1761 33.3749 10.2272 33.4652 10.3175C33.5554 10.4077 33.6065 10.5299 33.6075 10.6575V28.5213C33.6065 28.6485 33.5553 28.7703 33.465 28.86C33.3746 28.9497 33.2525 29 33.1252 29H28.9736C28.9108 29 28.8485 28.9876 28.7904 28.9636C28.7323 28.9395 28.6796 28.9042 28.6351 28.8598C28.5906 28.8153 28.5554 28.7625 28.5313 28.7045C28.5073 28.6464 28.4949 28.5841 28.4949 28.5213V10.6575C28.4944 10.5943 28.5064 10.5317 28.5303 10.4732C28.5541 10.4147 28.5893 10.3615 28.6338 10.3167C28.6783 10.2718 28.7313 10.2363 28.7896 10.212C28.8479 10.1877 28.9105 10.1752 28.9736 10.1752ZM19.881 16.2917H24.0325C24.0968 16.2922 24.1603 16.3055 24.2193 16.3308C24.2784 16.3561 24.3318 16.393 24.3764 16.4393C24.421 16.4856 24.4559 16.5403 24.4791 16.6002C24.5022 16.6601 24.5132 16.7241 24.5113 16.7883V28.507C24.5113 28.6339 24.4608 28.7557 24.371 28.8455C24.2813 28.9353 24.1595 28.9857 24.0325 28.9857H19.881C19.754 28.9857 19.6322 28.9353 19.5424 28.8455C19.4527 28.7557 19.4022 28.6339 19.4022 28.507V16.7883C19.4022 16.661 19.4525 16.5389 19.5422 16.4486C19.6319 16.3582 19.7537 16.307 19.881 16.306V16.2917ZM10.7883 10.1752H14.9399C15.0672 10.1761 15.1889 10.2274 15.2786 10.3177C15.3683 10.4081 15.4186 10.5302 15.4186 10.6575V28.5213C15.4186 28.5841 15.4062 28.6464 15.3822 28.7045C15.3581 28.7625 15.3228 28.8153 15.2784 28.8598C15.2339 28.9042 15.1812 28.9395 15.1231 28.9636C15.065 28.9876 15.0027 29 14.9399 29H10.7883C10.661 29 10.5389 28.9497 10.4485 28.86C10.3582 28.7703 10.307 28.6485 10.306 28.5213V10.6575C10.306 10.5296 10.3568 10.4069 10.4473 10.3165C10.5377 10.226 10.6604 10.1752 10.7883 10.1752V10.1752Z" fill="black"/>
</svg>
