<svg width="28" height="29" viewBox="0 0 28 29" fill="none" xmlns="http://www.w3.org/2000/svg">
<path d="M17.6569 25.7338C17.5696 26.1917 17.4162 26.6117 17.1943 26.9964C16.9654 27.3905 16.6657 27.7469 16.2975 28.0584C15.927 28.3699 15.5258 28.6059 15.0892 28.764C14.6527 28.9221 14.1901 29 13.7016 29C13.2107 29 12.7482 28.9198 12.3139 28.764C11.8797 28.6059 11.4762 28.3723 11.108 28.0584C10.7375 27.7445 10.4401 27.3905 10.2112 26.9964C9.98231 26.6023 9.82655 26.1681 9.74159 25.6913C9.69911 25.4601 9.85487 25.2382 10.0861 25.1958C10.0932 25.1958 10.1617 25.1887 10.1617 25.1887H17.2462C17.4822 25.1887 17.6758 25.3798 17.6758 25.6182C17.6734 25.6583 17.6663 25.6961 17.6569 25.7338ZM4.76916 0.0598691C5.20104 -0.112408 5.68955 0.0999884 5.86182 0.53186C6.0341 0.963732 5.8217 1.45224 5.38983 1.62452C4.45529 1.99739 3.67179 2.51422 3.0464 3.18445C2.42337 3.85468 1.95374 4.68538 1.64694 5.68364C1.51007 6.12731 1.03807 6.37747 0.594403 6.24059C0.150732 6.10371 -0.0994236 5.63172 0.0374538 5.18805C0.422127 3.93728 1.01684 2.88946 1.81214 2.03515C2.60745 1.18321 3.59627 0.52714 4.76916 0.0598691ZM22.011 1.62452C21.5791 1.45224 21.3667 0.963732 21.539 0.53186C21.7113 0.0999884 22.1998 -0.112408 22.6317 0.0598691C23.8046 0.52714 24.7934 1.18321 25.5887 2.03751C26.384 2.89418 26.9811 3.942 27.3634 5.19041C27.5003 5.63408 27.2501 6.10607 26.8064 6.24295C26.3628 6.37983 25.8908 6.12967 25.7539 5.686C25.4471 4.68538 24.9775 3.85468 24.3544 3.18681C23.729 2.51422 22.9455 1.99739 22.011 1.62452ZM16.9701 2.81866C17.4516 3.00981 17.9141 3.23873 18.3578 3.5054C18.3743 3.5172 18.3932 3.52664 18.4097 3.53844C18.8345 3.8004 19.231 4.08831 19.5944 4.39983C20.3708 5.06769 21.0175 5.8512 21.5296 6.73854C21.7844 7.18221 22.0039 7.64477 22.1856 8.12148C22.3721 8.61471 22.5113 9.11738 22.6057 9.63421C22.6977 10.1534 22.7449 10.6844 22.7449 11.2295C22.7449 12.3057 22.7449 12.8886 22.7449 12.9594C22.7473 13.5116 22.7497 14.052 22.7544 14.5783V14.583C22.7567 15.0597 22.7874 15.5388 22.8464 16.0179C22.9054 16.4922 22.9904 16.9501 23.1013 17.3914C23.2122 17.8256 23.3633 18.2457 23.5497 18.6469C23.7432 19.0599 23.9792 19.4658 24.2553 19.8599H24.2577C24.5314 20.2469 24.8736 20.6316 25.2843 21.0092C25.709 21.3986 26.1999 21.7833 26.7616 22.1561C27.0825 22.3709 27.1699 22.8075 26.9527 23.1284C26.8182 23.329 26.5964 23.4399 26.3698 23.4399V23.4423H20.0334H13.7016H7.36511H1.031C0.641602 23.4423 0.327728 23.1284 0.327728 22.739C0.327728 22.4842 0.464606 22.26 0.667562 22.1373C1.23631 21.7526 1.72482 21.3703 2.13309 20.9927C2.53901 20.6174 2.87884 20.2328 3.15259 19.8363C3.15967 19.8245 3.16911 19.8127 3.17855 19.8033C3.44287 19.4162 3.66942 19.0221 3.85586 18.6209C4.04702 18.2126 4.20041 17.7926 4.31369 17.3607C4.31605 17.3513 4.31841 17.3418 4.32077 17.3347C4.42933 16.9147 4.51193 16.471 4.56857 16.0061C4.62521 15.5388 4.65589 15.055 4.65589 14.5571V11.2295C4.65589 10.6938 4.70309 10.1628 4.79984 9.63185C4.8966 9.10322 5.03584 8.59583 5.22228 8.11204C5.40635 7.62825 5.62819 7.16333 5.88542 6.71966C6.40461 5.82288 7.04888 5.04645 7.83711 4.37387C8.22178 4.04583 8.63713 3.74612 9.08316 3.47944C9.53391 3.21041 10.0012 2.98385 10.4826 2.79978C10.8177 2.67234 11.1646 2.56614 11.5186 2.47882C11.639 2.05639 11.8467 1.7142 12.1417 1.45224C12.5476 1.09117 13.0809 0.911813 13.7441 0.918893C14.4001 0.923613 14.9311 1.10533 15.3323 1.4664C16.7507 2.72898 14.9854 2.03515 16.9701 2.81866Z" fill="black"/>
</svg>
