<svg width="26" height="30" viewBox="0 0 26 30" fill="none" xmlns="http://www.w3.org/2000/svg">
<path fill-rule="evenodd" clip-rule="evenodd" d="M19.3545 14.6472H23.0566V13.932C22.8449 13.1498 22.5078 12.6195 22.0712 12.2969C21.6346 11.975 21.0686 11.8372 20.4042 11.8418L5.22071 11.8453C4.84681 11.8453 4.54425 11.5428 4.54425 11.1703C4.54425 10.7973 4.84681 10.4954 5.22071 10.4954L20.3864 10.4971C21.3407 10.4879 22.1828 10.7049 22.8742 11.2162C22.9364 11.2621 22.9973 11.3104 23.0566 11.3609V10.9551C23.0566 10.3249 22.796 9.7487 22.3767 9.33031C21.9608 8.91192 21.3844 8.65308 20.7494 8.65308H20.261L20.1983 8.65021L19.9596 9.54324H18.3191L19.2923 5.90053C18.4744 5.68244 17.9866 4.83877 18.2058 4.02264L12.7923 2.57578C12.5732 3.39133 11.7282 3.87916 10.9114 3.6605L9.32204 9.54324H7.63031L10.2044 0L21.6916 3.07108L20.559 7.30263H20.7494C21.7531 7.30263 22.6683 7.71528 23.3321 8.37702C23.9971 9.03761 24.4095 9.95244 24.4095 10.9551V14.685C24.8001 14.7625 25.1493 14.9554 25.4202 15.2257C25.7774 15.5821 26 16.0757 26 16.6192V21.0585C26 21.6249 25.7676 22.1403 25.3949 22.5117C25.1285 22.7774 24.7892 22.9719 24.4095 23.0609V25.7388C24.4095 26.7409 23.9965 27.6552 23.3327 28.3175L23.2901 28.3565C22.6286 28.9953 21.7307 29.3913 20.7494 29.3913H3.66013C2.65522 29.3913 1.73889 28.9798 1.07509 28.3181C0.412434 27.6569 0 26.7438 0 25.7388V10.9551C0 9.94957 0.411858 9.03646 1.07451 8.3753C1.73717 7.71413 2.65292 7.30263 3.66013 7.30263H5.79535L5.80456 7.3032L7.50434 1.00437L9.12589 1.43768L6.89805 9.54324H5.2L5.44044 8.65308H3.66013C3.02681 8.65308 2.44987 8.91249 2.03111 9.32973C1.61292 9.74698 1.35292 10.3232 1.35292 10.9551V25.7388C1.35292 26.3707 1.6135 26.9458 2.03226 27.3631C2.45102 27.7814 3.02854 28.0414 3.66013 28.0414H20.7494C21.3666 28.0414 21.9309 27.7946 22.345 27.3958L22.3761 27.3625C22.7954 26.9447 23.0566 26.3684 23.0566 25.7388V23.1154H19.3545C18.2109 23.1154 17.1709 22.6483 16.4197 21.8987L16.3489 21.8212C15.638 21.0751 15.1996 20.0696 15.1996 18.97V18.792C15.1996 17.6562 15.6673 16.6209 16.4197 15.8685L16.4272 15.861C17.1807 15.112 18.2173 14.6472 19.3545 14.6472ZM13.849 9.3062C14.8378 9.57021 15.856 8.98481 16.1206 7.99765C16.3858 7.01108 15.7979 5.99523 14.8091 5.73122C13.8197 5.46722 12.8015 6.05262 12.5369 7.03977C12.2723 8.02635 12.8602 9.04162 13.849 9.3062ZM20.8403 17.7383L20.8437 17.7412C21.4724 18.3702 21.4707 19.3935 20.8426 20.022L20.8397 20.0254C20.2092 20.6527 19.1836 20.651 18.5532 20.0243L18.5503 20.0214C17.9216 19.3924 17.9233 18.3691 18.5515 17.74L18.5543 17.7372C19.1848 17.1099 20.2104 17.111 20.8403 17.7383Z" fill="black"/>
</svg>
