<svg width="35" height="29" viewBox="0 0 35 29" fill="none" xmlns="http://www.w3.org/2000/svg">
<g clip-path="url(#clip0_1570_644)">
<path fill-rule="evenodd" clip-rule="evenodd" d="M1.52872 0H33.1298C33.9703 0 34.6585 0.690207 34.6585 1.53316V27.4668C34.6585 28.3098 33.9703 29 33.1298 29H1.52872C0.688207 29 0 28.3098 0 27.4668V1.53316C0 0.690207 0.688207 0 1.52872 0ZM2.3918 6.67011H10.7462C10.9775 6.67011 11.1636 6.85964 11.1636 7.08876V9.84959C11.1636 10.0787 10.9746 10.2682 10.7462 10.2682H2.3918C2.16334 10.2682 1.97436 10.0787 1.97436 9.84959V7.08876C1.97154 6.85964 2.16052 6.67011 2.3918 6.67011ZM23.9124 23.2945H32.2696C32.5008 23.2945 32.687 23.484 32.687 23.7131V26.474C32.687 26.7031 32.498 26.8926 32.2696 26.8926H23.9124C23.6839 26.8926 23.4949 26.7031 23.4949 26.474V23.7131C23.4921 23.484 23.6811 23.2945 23.9124 23.2945ZM13.2 23.2945H21.4585C21.6898 23.2945 21.8759 23.484 21.8759 23.7131V26.474C21.8759 26.7031 21.687 26.8926 21.4585 26.8926H13.2C12.9716 26.8926 12.7826 26.7031 12.7826 26.474V23.7131C12.7798 23.484 12.9687 23.2945 13.2 23.2945ZM2.3918 23.2945H10.7462C10.9775 23.2945 11.1636 23.484 11.1636 23.7131V26.474C11.1636 26.7031 10.9746 26.8926 10.7462 26.8926H2.3918C2.16334 26.8926 1.97436 26.7031 1.97436 26.474V23.7131C1.97154 23.484 2.16052 23.2945 2.3918 23.2945ZM23.9124 17.753H32.2696C32.5008 17.753 32.687 17.9425 32.687 18.1717V20.9325C32.687 21.1616 32.498 21.3512 32.2696 21.3512H23.9124C23.6839 21.3512 23.4949 21.1616 23.4949 20.9325V18.1717C23.4921 17.9425 23.6811 17.753 23.9124 17.753ZM13.2 17.753H21.4585C21.6898 17.753 21.8759 17.9425 21.8759 18.1717V20.9325C21.8759 21.1616 21.687 21.3512 21.4585 21.3512H13.2C12.9716 21.3512 12.7826 21.1616 12.7826 20.9325V18.1717C12.7798 17.9425 12.9687 17.753 13.2 17.753ZM2.3918 17.753H10.7462C10.9775 17.753 11.1636 17.9425 11.1636 18.1717V20.9325C11.1636 21.1616 10.9746 21.3512 10.7462 21.3512H2.3918C2.16334 21.3512 1.97436 21.1616 1.97436 20.9325V18.1717C1.97154 17.9425 2.16052 17.753 2.3918 17.753ZM23.9124 12.2116H32.2696C32.5008 12.2116 32.687 12.4011 32.687 12.6302V15.391C32.687 15.6202 32.498 15.8097 32.2696 15.8097H23.9124C23.6839 15.8097 23.4949 15.6202 23.4949 15.391V12.6302C23.4921 12.4011 23.6811 12.2116 23.9124 12.2116ZM13.2 12.2116H21.4585C21.6898 12.2116 21.8759 12.4011 21.8759 12.6302V15.391C21.8759 15.6202 21.687 15.8097 21.4585 15.8097H13.2C12.9716 15.8097 12.7826 15.6202 12.7826 15.391V12.6302C12.7798 12.4011 12.9687 12.2116 13.2 12.2116ZM2.3918 12.2116H10.7462C10.9775 12.2116 11.1636 12.4011 11.1636 12.6302V15.391C11.1636 15.6202 10.9746 15.8097 10.7462 15.8097H2.3918C2.16334 15.8097 1.97436 15.6202 1.97436 15.391V12.6302C1.97154 12.4011 2.16052 12.2116 2.3918 12.2116ZM23.9124 6.67011H32.2696C32.5008 6.67011 32.687 6.85964 32.687 7.08876V9.84959C32.687 10.0787 32.498 10.2682 32.2696 10.2682H23.9124C23.6839 10.2682 23.4949 10.0787 23.4949 9.84959V7.08876C23.4921 6.85964 23.6811 6.67011 23.9124 6.67011ZM13.2 6.67011H21.4585C21.6898 6.67011 21.8759 6.85964 21.8759 7.08876V9.84959C21.8759 10.0787 21.687 10.2682 21.4585 10.2682H13.2C12.9716 10.2682 12.7826 10.0787 12.7826 9.84959V7.08876C12.7798 6.85964 12.9687 6.67011 13.2 6.67011Z" fill="black"/>
</g>
<defs>
<clipPath id="clip0_1570_644">
<rect width="34.6585" height="29" fill="white"/>
</clipPath>
</defs>
</svg>
