<svg width="29" height="29" viewBox="0 0 29 29" fill="none" xmlns="http://www.w3.org/2000/svg">
<g clip-path="url(#clip0_1570_675)">
<path fill-rule="evenodd" clip-rule="evenodd" d="M1.38062 0H6.12191C6.88184 0 7.50252 0.620687 7.50252 1.38062V6.12191C7.50252 6.88184 6.88184 7.50252 6.12191 7.50252H1.38062C0.620687 7.50488 0 6.88184 0 6.12191V1.38062C0 0.620687 0.620687 0 1.38062 0ZM22.7554 21.4951H27.4967C28.2566 21.4951 28.8796 22.1158 28.8796 22.8781V27.6194C28.8796 28.3793 28.259 29.0024 27.4967 29.0024H22.7554C21.9954 29.0024 21.3724 28.3817 21.3724 27.6194V22.8781C21.3724 22.1182 21.9954 21.4951 22.7554 21.4951ZM12.0692 21.4951H16.8105C17.5704 21.4951 18.1934 22.1158 18.1934 22.8781V27.6194C18.1934 28.3793 17.5728 29.0024 16.8105 29.0024H12.0692C11.3092 29.0024 10.6886 28.3817 10.6886 27.6194V22.8781C10.6862 22.1182 11.3092 21.4951 12.0692 21.4951ZM1.38062 21.4951H6.12191C6.88184 21.4951 7.50252 22.1158 7.50252 22.8781V27.6194C7.50252 28.3793 6.88184 29.0024 6.12191 29.0024H1.38062C0.620687 29.0024 0 28.3817 0 27.6194V22.8781C0 22.1182 0.620687 21.4951 1.38062 21.4951ZM22.7554 10.7476H27.4967C28.2566 10.7476 28.8796 11.3682 28.8796 12.1305V16.8718C28.8796 17.6318 28.259 18.2548 27.4967 18.2548H22.7554C21.9954 18.2548 21.3724 17.6341 21.3724 16.8718V12.1305C21.3724 11.3706 21.9954 10.7476 22.7554 10.7476ZM12.0692 10.7476H16.8105C17.5704 10.7476 18.1934 11.3682 18.1934 12.1305V16.8718C18.1934 17.6318 17.5728 18.2548 16.8105 18.2548H12.0692C11.3092 18.2548 10.6886 17.6341 10.6886 16.8718V12.1305C10.6862 11.3706 11.3092 10.7476 12.0692 10.7476ZM1.38062 10.7476H6.12191C6.88184 10.7476 7.50252 11.3682 7.50252 12.1305V16.8718C7.50252 17.6318 6.88184 18.2548 6.12191 18.2548H1.38062C0.620687 18.2524 0 17.6294 0 16.8695V12.1305C0 11.3706 0.620687 10.7476 1.38062 10.7476ZM22.7554 0H27.4967C28.2566 0 28.8796 0.620687 28.8796 1.38062V6.12191C28.8796 6.88184 28.259 7.50252 27.4967 7.50252H22.7554C21.9954 7.50252 21.3724 6.88184 21.3724 6.12191V1.38062C21.3724 0.620687 21.9954 0 22.7554 0ZM12.0692 0H16.8105C17.5704 0 18.1934 0.620687 18.1934 1.38062V6.12191C18.1934 6.88184 17.5728 7.50252 16.8105 7.50252H12.0692C11.3092 7.50252 10.6886 6.88184 10.6886 6.12191V1.38062C10.6862 0.620687 11.3092 0 12.0692 0Z" fill="black"/>
</g>
<defs>
<clipPath id="clip0_1570_675">
<rect width="28.8773" height="29" fill="white"/>
</clipPath>
</defs>
</svg>
