<svg width="25" height="29" viewBox="0 0 25 29" fill="none" xmlns="http://www.w3.org/2000/svg">
<path fill-rule="evenodd" clip-rule="evenodd" d="M4.13492 0H24.0637V22.2417C24.0283 22.8624 23.2259 22.879 22.3574 22.8388H3.83991C2.64097 22.8388 1.65916 23.8183 1.65916 25.0196C1.65916 26.2185 2.63861 27.2003 3.83991 27.2003H23.1551V24.8803H24.8615V27.8281C24.8615 28.3662 24.4225 28.8029 23.8867 28.8029H3.92487C1.76537 29.6053 0 27.8376 0 25.6804V4.13492C0 1.85977 1.85977 0 4.13492 0ZM12.4307 19.6786L5.80352 12.7871H10.0683V6.37703H14.7908V12.7871H19.0556L12.4307 19.6786Z" fill="black"/>
</svg>
