<svg width="26" height="29" viewBox="0 0 26 29" fill="none" xmlns="http://www.w3.org/2000/svg">
<path fill-rule="evenodd" clip-rule="evenodd" d="M14.6121 27.1554V28.3395H1.56218C0.710906 28.3395 0 27.6303 0 26.7779V1.56218C0 0.70751 0.70751 0 1.56218 0H21.7172C22.5684 0 23.2794 0.709208 23.2794 1.56218V15.7441H22.0941V10.954H1.2588L1.20673 10.9517V26.9573C1.20673 27.0773 1.30691 27.1769 1.42691 27.1769L14.6121 27.1554V27.1554ZM14.114 24.794V25.5038C14.114 25.5423 14.0885 25.5677 14.0512 25.5677H2.87476C2.83683 25.5677 2.81136 25.5423 2.81136 25.5038V24.794C2.81136 24.7561 2.83683 24.7306 2.87476 24.7306H14.0512C14.0891 24.7306 14.114 24.7561 14.114 24.794ZM13.0363 22.706V23.4152C13.0363 23.4543 13.0108 23.4797 12.9729 23.4797H2.87476C2.83683 23.4797 2.81136 23.4543 2.81136 23.4152V22.706C2.81136 22.6675 2.83683 22.642 2.87476 22.642H12.9729C13.0114 22.642 13.0363 22.6681 13.0363 22.706V22.706ZM11.9586 20.6174V21.3272C11.9586 21.3657 11.9332 21.3912 11.8958 21.3912H2.87476C2.83683 21.3912 2.81136 21.3657 2.81136 21.3272V20.6174C2.81136 20.5789 2.83683 20.554 2.87476 20.554H11.8958C11.9337 20.554 11.9586 20.5795 11.9586 20.6174V20.6174ZM17.8677 17.4942H25.2502C25.6198 17.4942 25.9232 17.7953 25.9232 18.1649V28.327C25.9232 28.6966 25.6198 29 25.2502 29H17.8677C17.4981 29 17.1948 28.6983 17.1948 28.3287V18.1672C17.1948 17.7976 17.4981 17.4942 17.8677 17.4942V17.4942ZM23.692 19.4548H23.9082V20.6208H23.692V19.4548ZM18.7807 22.1943H19.8403C19.9314 22.1943 20.0061 22.2696 20.0061 22.3602V23.2895C20.006 23.3335 19.9885 23.3756 19.9574 23.4066C19.9263 23.4377 19.8842 23.4552 19.8403 23.4554H18.7807C18.6902 23.4554 18.6154 23.3807 18.6154 23.2895V22.3602C18.6154 22.2696 18.6902 22.1943 18.7807 22.1943ZM18.7807 26.5186H19.8403C19.9314 26.5186 20.0061 26.5939 20.0061 26.6839V27.6144C20.0061 27.705 19.9314 27.7797 19.8403 27.7797H18.7807C18.6902 27.7797 18.6154 27.705 18.6154 27.6144V26.6839C18.6154 26.5939 18.6902 26.5186 18.7807 26.5186ZM18.7807 24.3565H19.8403C19.9314 24.3565 20.0061 24.4317 20.0061 24.5223V25.4523C20.0061 25.5428 19.9314 25.6175 19.8403 25.6175H18.7807C18.6902 25.6175 18.6154 25.5428 18.6154 25.4523V24.5223C18.6154 24.4317 18.6902 24.3565 18.7807 24.3565ZM23.2788 22.1943H24.3389C24.4295 22.1943 24.5025 22.2696 24.5025 22.3602V23.2895C24.5025 23.3807 24.4278 23.4554 24.3389 23.4554H23.2788C23.1882 23.4554 23.1135 23.3807 23.1135 23.2895V22.3602C23.1135 22.2696 23.1865 22.1943 23.2788 22.1943ZM23.2788 26.5186H24.3389C24.4295 26.5186 24.5025 26.5939 24.5025 26.6839V27.6144C24.5025 27.705 24.4278 27.7797 24.3389 27.7797H23.2788C23.1882 27.7797 23.1135 27.705 23.1135 27.6144V26.6839C23.1135 26.5939 23.1865 26.5186 23.2788 26.5186ZM23.2788 24.3565H24.3389C24.4295 24.3565 24.5025 24.4317 24.5025 24.5223V25.4523C24.5025 25.5428 24.4278 25.6175 24.3389 25.6175H23.2788C23.1882 25.6175 23.1135 25.5428 23.1135 25.4523V24.5223C23.1135 24.4317 23.1865 24.3565 23.2788 24.3565ZM21.0289 22.1943H22.0885C22.1796 22.1943 22.2543 22.2696 22.2543 22.3602V23.2895C22.2542 23.3335 22.2366 23.3756 22.2056 23.4066C22.1745 23.4377 22.1324 23.4552 22.0885 23.4554H21.0289C20.9383 23.4554 20.8636 23.3807 20.8636 23.2895V22.3602C20.8636 22.2696 20.9383 22.1943 21.0289 22.1943ZM21.0289 26.5186H22.0885C22.1796 26.5186 22.2543 26.5939 22.2543 26.6839V27.6144C22.2543 27.705 22.1796 27.7797 22.0885 27.7797H21.0289C20.9383 27.7797 20.8636 27.705 20.8636 27.6144V26.6839C20.8636 26.5939 20.9383 26.5186 21.0289 26.5186ZM21.0289 24.3565H22.0885C22.1796 24.3565 22.2543 24.4317 22.2543 24.5223V25.4523C22.2543 25.5428 22.1796 25.6175 22.0885 25.6175H21.0289C20.9383 25.6175 20.8636 25.5428 20.8636 25.4523V24.5223C20.8636 24.4317 20.9383 24.3565 21.0289 24.3565ZM18.6415 18.7632H24.4765C24.6576 18.7632 24.8076 18.9132 24.8076 19.0943V20.9802C24.8076 21.1614 24.6576 21.3113 24.4765 21.3113H18.6415C18.4604 21.3113 18.3104 21.1608 18.3104 20.9802V19.0943C18.3104 18.9132 18.4604 18.7632 18.6415 18.7632V18.7632ZM24.4329 19.1379H18.6851V20.9366H24.4329V19.1379V19.1379ZM25.2502 17.9651H17.8677C17.7557 17.9651 17.6634 18.0545 17.6634 18.1672V28.3287C17.6634 28.4402 17.754 28.5308 17.8661 28.5308H25.2485C25.36 28.5308 25.4506 28.4402 25.4506 28.3287V18.1672C25.4506 18.0562 25.3617 17.9651 25.2502 17.9651V17.9651ZM19.0983 13.3544V14.0568C19.0983 14.0953 19.0733 14.1202 19.036 14.1202H11.7413C11.7034 14.1202 11.6784 14.0953 11.6784 14.0568V13.3544C11.6784 13.3159 11.7034 13.291 11.7413 13.291H19.036C19.0733 13.291 19.0983 13.3159 19.0983 13.3544V13.3544ZM15.7984 15.332V16.0356C15.7984 16.0729 15.7735 16.0978 15.735 16.0978H11.7543C11.7164 16.0978 11.6909 16.0729 11.6909 16.0356V15.332C11.6909 15.2941 11.7164 15.2692 11.7543 15.2692H15.735C15.7605 15.2692 15.7984 15.2941 15.7984 15.332V15.332ZM6.43099 15.8567L8.8818 15.9009C8.8818 16.8065 8.44937 17.638 7.72828 18.1428L6.43099 15.8567V15.8567ZM6.26684 12.1437V11.9507L6.45476 11.966C6.68512 11.9801 6.91549 12.0248 7.13227 12.0848C7.34849 12.1437 7.55055 12.2331 7.75205 12.3367C8.93387 12.9723 9.41385 14.0376 9.5112 15.3507L6.28722 15.2618L6.26684 12.1437V12.1437ZM6.64211 14.9058L9.13651 14.98C9.03519 13.9702 8.42956 13.0946 7.593 12.6339C7.33094 12.4986 7.05133 12.3995 6.76267 12.3441C6.71286 12.3345 6.66362 12.3271 6.61324 12.322L6.64211 14.9058V14.9058ZM7.00718 18.0885C6.57475 18.3404 6.09874 18.4751 5.60858 18.4751C4.06564 18.4751 2.81136 17.1829 2.81136 15.593C2.81136 14.0489 3.99375 12.772 5.49311 12.7125L5.60858 15.593L7.00718 18.0885V18.0885ZM22.0941 9.82817V1.42634C22.0941 1.30691 21.9951 1.20616 21.8751 1.20616H1.42691C1.30238 1.20616 1.20673 1.30352 1.20673 1.42634V9.83043L1.2588 9.82817H22.0941V9.82817ZM7.53923 3.58793H8.94293C8.99614 3.58793 9.03123 3.62302 9.03123 3.67622V8.57729C9.03123 8.63049 8.99614 8.66559 8.94293 8.66559H7.53923C7.48603 8.66559 7.45093 8.63049 7.45093 8.57729V3.67622C7.45093 3.62302 7.48603 3.58793 7.53923 3.58793ZM11.0966 5.45066H12.5003C12.5535 5.45066 12.5886 5.48575 12.5886 5.53896V8.55974C12.5886 8.61295 12.5535 8.64804 12.5003 8.64804H11.0966C11.0434 8.64804 11.0083 8.61295 11.0083 8.55974V5.53896C11.0083 5.50386 11.0434 5.45066 11.0966 5.45066ZM18.2119 5.45066H19.6156C19.6688 5.45066 19.7039 5.48575 19.7039 5.53896V8.55974C19.7039 8.61295 19.6688 8.64804 19.6156 8.64804H18.2119C18.1587 8.64804 18.1236 8.61295 18.1236 8.55974V5.53896C18.1236 5.50386 18.1587 5.45066 18.2119 5.45066ZM14.654 3.58793H16.0571C16.1109 3.58793 16.146 3.62302 16.146 3.67622V8.57729C16.146 8.63049 16.1109 8.66559 16.0571 8.66559H14.654C14.6002 8.66559 14.5651 8.63049 14.5651 8.57729V3.67622C14.5651 3.62302 14.6002 3.58793 14.654 3.58793ZM3.98187 4.26148H5.385C5.43821 4.26148 5.4733 4.29657 5.4733 4.35091V8.57729C5.4733 8.63049 5.43821 8.66559 5.385 8.66559H3.98187C3.92866 8.66559 3.89357 8.63049 3.89357 8.57729V4.35091C3.87546 4.29657 3.92866 4.26148 3.98187 4.26148Z" fill="black"/>
</svg>
