<svg width="36" height="29" viewBox="0 0 36 29" fill="none" xmlns="http://www.w3.org/2000/svg">
<path d="M3.61634 22.1077L3.70503 6.39493H1.93119V26.3878C4.36879 25.7584 6.81496 25.3578 9.27831 25.3406C11.5528 25.3263 13.8273 25.6439 16.1076 26.4164C14.6914 25.2691 13.1121 24.4251 11.4269 23.8758C9.30405 23.1834 7.00951 22.9546 4.65775 23.1548C4.1256 23.1977 3.66211 22.8029 3.61634 22.2736C3.61061 22.2164 3.61061 22.162 3.61634 22.1077ZM29.6459 5.57382C29.6402 5.52804 29.6345 5.47941 29.6345 5.42791C29.6345 5.37927 29.6374 5.33063 29.6459 5.282V2.10054C27.4143 1.88882 25.1141 2.13487 23.1056 2.8959C21.2288 3.6083 19.6095 4.77846 18.5566 6.45502V24.5768C20.1931 23.4838 21.8668 22.5855 23.5863 21.9732C25.5461 21.2751 27.5603 20.9432 29.6459 21.1092V5.57382ZM31.5771 4.46374H34.1921C34.7243 4.46374 35.1563 4.89576 35.1563 5.42791V27.6466C35.1563 28.1788 34.7243 28.6108 34.1921 28.6108C34.0834 28.6108 33.9775 28.5936 33.8803 28.5593C31.1909 27.7897 28.5187 27.2776 25.8723 27.2604C23.2916 27.2432 20.7138 27.6981 18.1246 28.8397C17.9644 28.9455 17.7727 29.0028 17.5753 28.9999C17.3807 29.0028 17.189 28.9455 17.026 28.8397C14.4396 27.6953 11.859 27.2432 9.27831 27.2604C6.63186 27.2776 3.96252 27.7897 1.2703 28.5593C1.17302 28.5936 1.06716 28.6108 0.958444 28.6108C0.432015 28.6137 0 28.1816 0 27.6495V5.42791C0 4.89576 0.432015 4.46374 0.964166 4.46374H3.71361L3.73078 1.24223C3.73364 0.778741 4.0598 0.395364 4.49753 0.303811C7.03526 -0.225479 10.1194 -0.0938715 12.8231 0.94182C14.6914 1.65708 16.388 2.79863 17.6268 4.44658C18.877 2.91021 20.5479 1.80585 22.4276 1.09345C24.9968 0.117844 27.9608 -0.11676 30.7503 0.292367C31.231 0.361032 31.5743 0.77588 31.5743 1.24509V4.46374H31.5771ZM19.4922 26.2705C21.6236 25.601 23.7522 25.3263 25.8808 25.3378C28.3442 25.3521 30.7904 25.7555 33.228 26.3849V6.39493H31.5771V22.1935C31.5771 22.7257 31.1451 23.1577 30.613 23.1577C30.5357 23.1577 30.4613 23.1491 30.3898 23.1319C28.2784 22.8001 26.2327 23.0747 24.2357 23.7871C22.6279 24.3622 21.0486 25.2205 19.4922 26.2705ZM16.6283 24.3908V6.42641C15.6183 4.64399 13.9847 3.45094 12.1393 2.74427C10.0479 1.94318 7.69902 1.76293 5.65053 2.05476L5.54181 21.1693C7.77627 21.0892 9.96209 21.3724 12.0192 22.0447C13.6557 22.5769 15.2064 23.358 16.6283 24.3908Z" fill="black"/>
</svg>
