<svg width="34" height="33" viewBox="0 0 34 33" fill="none" xmlns="http://www.w3.org/2000/svg">
<path fill-rule="evenodd" clip-rule="evenodd" d="M1.12664 11.9732L32.0881 0.101662C32.2646 0.0143081 32.4633 -0.0178359 32.6584 0.00944437C32.8535 0.0367246 33.0357 0.122156 33.1813 0.254537C33.3268 0.386919 33.4288 0.560073 33.474 0.751297C33.5191 0.942522 33.5053 1.14289 33.4343 1.32614L21.5882 32.3704C21.5204 32.549 21.4015 32.7037 21.2463 32.8155C21.0911 32.9273 20.9064 32.9911 20.7151 32.9991C20.5239 33.0072 20.3345 32.959 20.1704 32.8605C20.0064 32.7621 19.8749 32.6178 19.7924 32.4456L15.0189 22.5961L24.4931 9.07042L10.9589 18.493L1.05394 13.7616C0.881951 13.6791 0.737922 13.5482 0.639627 13.3851C0.541332 13.222 0.493072 13.0337 0.500802 12.8435C0.508532 12.6534 0.571914 12.4696 0.683126 12.3149C0.794339 12.1603 0.948516 12.0415 1.12664 11.9732V11.9732Z" fill="#FAA300"/>
</svg>
