<svg width="15" height="16" viewBox="0 0 15 16" fill="none" xmlns="http://www.w3.org/2000/svg">
<path d="M7.97875 11.1494L8.44376 8.18023C7.07784 8.31305 5.56163 8.6426 4.28212 9.5257C2.8505 10.5135 1.69249 12.2146 1.33459 15.1492C1.30849 15.367 1.10599 15.523 0.882785 15.4972C0.710884 15.4773 0.576482 15.3547 0.536282 15.1999C0.209879 14.2438 0.0424771 13.3405 0.00737673 12.4925C-0.0907242 10.1646 0.799084 8.26408 2.1128 6.81599C3.41361 5.38168 5.13263 4.39302 6.71244 3.87436C7.31785 3.67499 7.90615 3.54393 8.44556 3.48265L7.98235 0.966157C7.94275 0.750952 8.08945 0.544542 8.30966 0.506134C8.43176 0.485024 8.55086 0.519621 8.63966 0.59116L14.8527 5.6136C15.0255 5.75345 15.0498 6.00442 14.9067 6.17301L14.8605 6.21963L8.64866 11.5086C8.47946 11.6528 8.22206 11.6352 8.07445 11.4699C8.03563 11.4265 8.00696 11.3753 7.99043 11.32C7.9739 11.2646 7.96992 11.2064 7.97875 11.1494Z" fill="#FAA300"/>
</svg>
