<svg width="33" height="33" viewBox="0 0 33 33" fill="none" xmlns="http://www.w3.org/2000/svg">
<path fill-rule="evenodd" clip-rule="evenodd" d="M29.9062 0H3.09375C1.39219 0 0 1.39219 0 3.09375V29.9062C0 31.6078 1.39219 33 3.09375 33H29.9062C31.6078 33 33 31.6078 33 29.9062V3.09375C33 1.39219 31.6078 0 29.9062 0ZM26.8155 10.1029C26.0446 10.4456 25.2261 10.669 24.388 10.7655C25.2601 10.2454 25.9294 9.41351 26.2491 8.42387C25.4312 8.90804 24.5232 9.26367 23.5634 9.45306C22.7875 8.63218 21.6894 8.1212 20.4726 8.1212C18.1352 8.1212 16.2424 10.0128 16.2424 12.3501C16.2424 12.6778 16.2777 13.0012 16.3502 13.313C12.8343 13.1334 9.71681 11.4501 7.62848 8.88974C7.25289 9.53557 7.05496 10.2693 7.05479 11.0164C7.05479 12.4842 7.80023 13.7814 8.93605 14.5359C8.24176 14.5158 7.59192 14.324 7.01762 14.0097V14.0634C7.01762 16.1133 8.47684 17.8258 10.4135 18.2131C10.05 18.3116 9.67503 18.3616 9.29838 18.3618C9.02557 18.3618 8.76187 18.335 8.50061 18.2856C9.03959 19.9659 10.5999 21.1912 12.4525 21.2247C11.0018 22.3611 9.17963 23.0378 7.19545 23.0378C6.85256 23.0378 6.51823 23.0177 6.18452 22.9787C8.06088 24.1833 10.285 24.8788 12.6748 24.8788C20.4574 24.8788 24.715 18.4306 24.715 12.8392C24.715 12.6534 24.7119 12.472 24.7029 12.2899C25.5293 11.6991 26.2479 10.9525 26.8131 10.1048L26.8155 10.1029H26.8155Z" fill="#03A9F4"/>
</svg>
