<svg width="33" height="33" viewBox="0 0 33 33" fill="none" xmlns="http://www.w3.org/2000/svg">
<path fill-rule="evenodd" clip-rule="evenodd" d="M29.9062 0H3.09375C1.39219 0 0 1.39219 0 3.09375V29.9062C0 31.6078 1.39219 33 3.09375 33H29.9062C31.6078 33 33 31.6078 33 29.9062V3.09375C33 1.39219 31.6078 0 29.9062 0ZM24.3965 8.55298C22.2996 6.45191 19.5122 5.29598 16.5414 5.29598C10.4233 5.29598 5.44398 10.2765 5.44398 16.3989C5.44398 18.3557 5.95553 20.2679 6.92754 21.9494L5.35024 27.704L11.2375 26.1607C12.8612 27.0444 14.6864 27.5122 16.5414 27.5122H16.5451C22.6639 27.5122 27.6492 22.5311 27.6492 16.4098C27.6492 13.4409 26.4946 10.6534 24.3965 8.55355V8.55298ZM16.545 25.6388C14.8855 25.6388 13.2625 25.1918 11.8459 24.3508L11.5079 24.1498L8.01401 25.0664L8.94698 21.6602L8.72954 21.31C7.79832 19.844 7.31544 18.1468 7.31544 16.4001C7.31544 11.3106 11.4549 7.1675 16.5499 7.1675C19.0134 7.1675 21.3356 8.13156 23.0767 9.87334C24.8167 11.6175 25.7765 13.9348 25.7765 16.4032C25.7716 21.4969 21.6309 25.6376 16.545 25.6376V25.6388ZM21.6053 18.7235C21.33 18.584 19.9641 17.9165 19.7101 17.8227C19.458 17.7278 19.271 17.6808 19.0828 17.9616C18.9013 18.2381 18.3672 18.866 18.2046 19.0523C18.0426 19.2356 17.8818 19.2607 17.6059 19.1218C17.3288 18.9829 16.4311 18.6882 15.3727 17.7442C14.5487 17.0073 13.9915 16.0974 13.8282 15.8215C13.6644 15.5475 13.8106 15.3916 13.9512 15.2582C14.0791 15.1339 14.2283 14.9336 14.3684 14.7716C14.5091 14.6096 14.5517 14.4963 14.6443 14.3075C14.7357 14.1248 14.6906 13.9634 14.6211 13.8222C14.5517 13.6833 13.9945 12.3154 13.7692 11.76C13.5456 11.2174 13.3142 11.2929 13.1431 11.2819C12.9798 11.2752 12.7978 11.2752 12.6126 11.2752C12.4299 11.2752 12.1291 11.3441 11.8727 11.6224C11.6187 11.8971 10.9019 12.57 10.9019 13.936C10.9019 15.302 11.8934 16.6193 12.0341 16.8075C12.1754 16.9914 13.9914 19.7959 16.774 20.9975C17.436 21.2807 17.9525 21.4512 18.3538 21.5816C19.0201 21.7935 19.623 21.7625 20.1011 21.6918C20.6333 21.6132 21.7418 21.0225 21.9738 20.3733C22.207 19.7247 22.207 19.1717 22.1364 19.0566C22.07 18.933 21.8879 18.866 21.606 18.7229L21.6053 18.7235Z" fill="#65BC54"/>
</svg>
