<svg width="36" height="30" viewBox="0 0 36 30" fill="none" xmlns="http://www.w3.org/2000/svg">
<path d="M4.03821 22.343L4.1269 6.63029H2.35307V26.6231C4.79066 25.9937 7.23684 25.5932 9.70018 25.576C11.9747 25.5617 14.2492 25.8793 16.5294 26.6517C15.1132 25.5045 13.534 24.6605 11.8488 24.1112C9.72593 23.4188 7.43139 23.1899 5.07963 23.3902C4.54747 23.4331 4.08399 23.0383 4.03821 22.509C4.03249 22.4518 4.03249 22.3974 4.03821 22.343ZM30.0678 5.80917C30.0621 5.7634 30.0564 5.71476 30.0564 5.66326C30.0564 5.61462 30.0592 5.56598 30.0678 5.51735V2.33589C27.8362 2.12417 25.536 2.37022 23.5275 3.13125C21.6507 3.84365 20.0313 5.01381 18.9785 6.69037V24.8121C20.615 23.7192 22.2887 22.8208 24.0082 22.2086C25.968 21.5105 27.9821 21.1786 30.0678 21.3445V5.80917ZM31.999 4.69909H34.614C35.1461 4.69909 35.5782 5.13111 35.5782 5.66326V27.882C35.5782 28.4141 35.1461 28.8461 34.614 28.8461C34.5053 28.8461 34.3994 28.829 34.3021 28.7947C31.6128 28.025 28.9406 27.5129 26.2941 27.4957C23.7135 27.4786 21.1357 27.9335 18.5465 29.075C18.3863 29.1809 18.1946 29.2381 17.9972 29.2352C17.8026 29.2381 17.6109 29.1809 17.4478 29.075C14.8615 27.9306 12.2808 27.4786 9.70018 27.4957C7.05373 27.5129 4.3844 28.025 1.69217 28.7947C1.5949 28.829 1.48904 28.8461 1.38032 28.8461C0.85389 28.849 0.421875 28.417 0.421875 27.8848V5.66326C0.421875 5.13111 0.85389 4.69909 1.38604 4.69909H4.13549L4.15265 1.47758C4.15551 1.01409 4.48167 0.630715 4.91941 0.539163C7.45714 0.0098729 10.5413 0.14148 13.245 1.17717C15.1132 1.89243 16.8098 3.03398 18.0487 4.68193C19.2989 3.14556 20.9698 2.0412 22.8495 1.32881C25.4187 0.353196 28.3827 0.118592 31.1722 0.527719C31.6528 0.596383 31.9962 1.01123 31.9962 1.48044V4.69909H31.999ZM19.914 26.5058C22.0455 25.8363 24.1741 25.5617 26.3027 25.5731C28.7661 25.5874 31.2122 25.9908 33.6498 26.6203V6.63029H31.999V22.4289C31.999 22.961 31.567 23.393 31.0348 23.393C30.9576 23.393 30.8832 23.3845 30.8117 23.3673C28.7003 23.0354 26.6546 23.3101 24.6576 24.0225C23.0497 24.5975 21.4704 25.4558 19.914 26.5058ZM17.0502 24.6261V6.66176C16.0402 4.87934 14.4066 3.68629 12.5612 2.97962C10.4698 2.17853 8.12089 1.99829 6.0724 2.29011L5.96368 21.4046C8.19814 21.3245 10.384 21.6078 12.441 22.2801C14.0775 22.8122 15.6282 23.5933 17.0502 24.6261Z" fill="black"/>
</svg>
