<svg width="30" height="30" viewBox="0 0 30 30" fill="none" xmlns="http://www.w3.org/2000/svg">
<path fill-rule="evenodd" clip-rule="evenodd" d="M10.9061 15.2533C10.7168 15.2206 10.5452 15.1221 10.4214 14.9752C10.2977 14.8282 10.2298 14.6423 10.2298 14.4502C10.2298 14.2581 10.2977 14.0722 10.4214 13.9253C10.5452 13.7784 10.7168 13.6799 10.9061 13.6472H19.8299C20.0192 13.6799 20.1909 13.7784 20.3146 13.9253C20.4384 14.0722 20.5062 14.2581 20.5062 14.4502C20.5062 14.6423 20.4384 14.8282 20.3146 14.9752C20.1909 15.1221 20.0192 15.2206 19.8299 15.2533H10.9061ZM25.6223 15.2295V16.2987C25.6224 16.3431 25.6066 16.3862 25.5779 16.4201C25.5492 16.454 25.5094 16.4767 25.4655 16.484C25.38 16.484 25.2945 16.5101 25.2089 16.5291C25.0482 16.56 24.8896 16.6004 24.7337 16.6503C24.4412 16.7414 24.1617 16.87 23.9022 17.0328C23.7799 17.1092 23.6632 17.1941 23.5529 17.287C23.4452 17.3768 23.3443 17.4745 23.2512 17.5793C23.1556 17.6849 23.0682 17.7976 22.9899 17.9166C22.667 18.4102 22.5013 18.9901 22.5147 19.5798C22.5145 19.7488 22.5233 19.9177 22.5408 20.0858C22.5592 20.2394 22.587 20.3918 22.624 20.542C22.6599 20.6791 22.7059 20.8133 22.7618 20.9435C22.8139 21.0653 22.8767 21.1821 22.9495 21.2928L22.9637 21.3141C23.1139 21.5357 23.291 21.7376 23.4912 21.9152C23.5964 22.0121 23.7066 22.1033 23.8214 22.1885C23.94 22.274 24.0629 22.3533 24.1897 22.4261C24.4486 22.5662 24.7456 22.7373 25.0117 22.8561L25.4655 23.0699L26.1403 23.3669C26.2543 23.4239 26.3493 23.4714 26.461 23.5332L26.6012 23.6259C26.6416 23.6544 26.6772 23.6829 26.7081 23.709C26.7406 23.7375 26.7708 23.7685 26.7984 23.8017L26.8649 23.8872C26.8916 23.9262 26.9146 23.9676 26.9338 24.0108C26.9493 24.0429 26.962 24.0763 26.9718 24.1106C26.9859 24.1517 26.9971 24.1938 27.0051 24.2365C27.0152 24.2882 27.0216 24.3406 27.0241 24.3933C27.0241 24.4503 27.0241 24.5073 27.0241 24.5643V24.6784C27.0146 24.749 27.0004 24.8188 26.9813 24.8875C26.9608 24.9511 26.9337 25.0124 26.9005 25.0704C26.8624 25.1318 26.8151 25.1871 26.7604 25.2343L26.6796 25.2937C26.6115 25.3332 26.5378 25.362 26.461 25.3793C26.375 25.4029 26.2865 25.4165 26.1973 25.4197C26.1094 25.4197 26.0476 25.4197 25.9597 25.403C25.8091 25.3786 25.6643 25.3271 25.532 25.251C25.5015 25.2314 25.4721 25.21 25.4441 25.1868L25.3562 25.1084C25.3278 25.0804 25.3016 25.0502 25.2778 25.0181C25.2527 24.9856 25.2297 24.9515 25.2089 24.916C25.1875 24.878 25.1638 24.8352 25.1448 24.7948C25.1257 24.7538 25.109 24.7118 25.0949 24.6689C25.0775 24.6216 25.0632 24.5731 25.0521 24.524C25.0387 24.4675 25.0284 24.4104 25.0212 24.3529C25.0212 24.2959 25.007 24.2317 25.0022 24.1652C25.0022 24.0939 25.0022 24.025 25.0022 23.9561C25.0021 23.9285 24.991 23.902 24.9713 23.8825C24.9614 23.8725 24.9495 23.8646 24.9365 23.8593C24.9234 23.8539 24.9094 23.8513 24.8953 23.8516H22.2129C22.1853 23.8517 22.1588 23.8628 22.1393 23.8825C22.1293 23.892 22.1215 23.9034 22.1162 23.9161C22.1108 23.9287 22.1082 23.9424 22.1084 23.9561C22.1084 24.1391 22.1084 24.3078 22.1298 24.4646C22.1512 24.6214 22.1678 24.7782 22.1963 24.9397C22.2242 25.0814 22.2616 25.2211 22.308 25.3579C22.3496 25.4869 22.3996 25.6131 22.4577 25.7357L22.4719 25.7642C22.5289 25.8806 22.5931 26.0018 22.662 26.1063C22.731 26.2131 22.8055 26.3162 22.8853 26.4152C22.9637 26.5112 23.0478 26.6025 23.1372 26.6884C23.2222 26.7734 23.3127 26.8527 23.408 26.926L23.4294 26.9426C23.5257 27.0135 23.6256 27.0793 23.7288 27.1398C23.8333 27.2039 23.9402 27.261 24.0519 27.3156C24.1635 27.3703 24.2728 27.413 24.3892 27.4582C24.5057 27.5033 24.6268 27.5366 24.7385 27.5698C24.8502 27.6031 24.9262 27.6174 25.0189 27.6364C25.1115 27.6554 25.2137 27.6767 25.304 27.691C25.3476 27.6978 25.3874 27.72 25.4162 27.7535C25.4449 27.7871 25.4607 27.8298 25.4608 27.8739V28.8956C25.4682 28.9927 25.4975 29.0869 25.5463 29.1712C25.5653 29.2068 25.5463 29.2353 25.5677 29.2353H26.8008C26.8149 29.2356 26.8289 29.2331 26.8421 29.2278C26.8552 29.2226 26.8671 29.2147 26.8771 29.2047C26.8871 29.1947 26.8949 29.1828 26.9002 29.1697C26.9055 29.1566 26.908 29.1425 26.9077 29.1284V27.8787C26.9076 27.8349 26.9231 27.7924 26.9514 27.7589C26.9797 27.7254 27.0189 27.7031 27.0621 27.6958L27.2189 27.6696C27.3792 27.639 27.5378 27.6001 27.6941 27.5532C27.9845 27.4637 28.2635 27.3409 28.5257 27.1873C28.6442 27.1171 28.757 27.0377 28.863 26.9497C28.9724 26.8611 29.0749 26.7642 29.1695 26.6599C29.2657 26.5547 29.3531 26.4419 29.4309 26.3225C29.5117 26.2047 29.5817 26.0799 29.6399 25.9495C29.6997 25.8171 29.7497 25.6805 29.7896 25.5408C29.8292 25.3941 29.8585 25.2449 29.8775 25.0942C29.8976 24.9366 29.9079 24.7779 29.9084 24.619C29.9089 24.4515 29.8994 24.2841 29.8799 24.1177C29.861 23.9648 29.8324 23.8132 29.7944 23.6639C29.7576 23.5231 29.7091 23.3856 29.6494 23.2529C29.5949 23.1302 29.5297 23.0125 29.4546 22.9012C29.382 22.7904 29.3026 22.684 29.217 22.5829C29.1265 22.4788 29.0297 22.3805 28.9272 22.2883C28.8258 22.1962 28.7195 22.1098 28.6088 22.0293C28.4948 21.9461 28.3712 21.8654 28.2477 21.7917H28.231C28.1051 21.718 27.9721 21.642 27.8295 21.5541C27.687 21.4662 27.5682 21.4116 27.4114 21.3332C27.2546 21.2547 27.1239 21.1882 26.979 21.1193C26.7414 21.0148 26.5228 20.9126 26.2971 20.801L26.1141 20.7012L25.9597 20.6109C25.867 20.5467 25.8076 20.5063 25.7221 20.4351C25.6584 20.3772 25.601 20.3127 25.5511 20.2426C25.5286 20.2131 25.5095 20.1813 25.494 20.1476C25.4787 20.1151 25.4652 20.0818 25.4536 20.0478C25.4415 20.0135 25.4312 19.9786 25.4228 19.9433C25.4147 19.9025 25.4092 19.8612 25.4061 19.8197V19.6914V19.5726C25.4156 19.4966 25.4298 19.4212 25.4489 19.3469L25.4869 19.2376C25.499 19.2054 25.5141 19.1744 25.532 19.145C25.5493 19.1155 25.5692 19.0877 25.5914 19.0618C25.6361 19.0059 25.689 18.957 25.7482 18.9169C25.7757 18.8992 25.8043 18.8834 25.8338 18.8694L25.9359 18.8361C25.9771 18.8245 26.0193 18.8166 26.0619 18.8123C26.1078 18.81 26.1538 18.81 26.1997 18.8123C26.2603 18.812 26.3207 18.8176 26.3802 18.829C26.4338 18.839 26.4863 18.8541 26.537 18.8741H26.5489C26.6007 18.8958 26.6501 18.9229 26.6962 18.9549C26.7443 18.9865 26.7889 19.0231 26.8293 19.0642L26.8435 19.0784C26.8906 19.1281 26.9306 19.1841 26.9623 19.2448C26.9923 19.3067 27.017 19.3711 27.036 19.4372V19.461C27.0612 19.5592 27.0786 19.6593 27.0882 19.7603C27.0882 19.8649 27.1049 19.9837 27.1073 20.112C27.1071 20.137 27.1154 20.1613 27.131 20.1809C27.1505 20.2005 27.177 20.2116 27.2047 20.2117H29.8704C29.8981 20.2116 29.9246 20.2005 29.944 20.1809C29.9541 20.1709 29.962 20.1591 29.9673 20.146C29.9726 20.1329 29.9752 20.1189 29.9749 20.1048C29.9756 19.9246 29.9653 19.7445 29.944 19.5655C29.9252 19.3967 29.8959 19.2293 29.8561 19.0642C29.8186 18.9089 29.7702 18.7565 29.7112 18.608C29.6548 18.4671 29.5881 18.3305 29.5116 18.1994L29.495 18.1685C29.417 18.0365 29.3296 17.9103 29.2337 17.7907C29.1403 17.672 29.0378 17.5608 28.9272 17.4581C28.8193 17.3304 28.7009 17.212 28.5732 17.1041C28.4458 17.0158 28.3124 16.9364 28.174 16.8665C27.8904 16.7237 27.5904 16.616 27.2807 16.5458H27.2284C27.1852 16.5385 27.146 16.5161 27.1177 16.4826C27.0894 16.4491 27.0739 16.4066 27.074 16.3628V15.2462C27.0738 15.2212 27.0655 15.197 27.0502 15.1773C27.0403 15.1672 27.0284 15.1593 27.0154 15.154C27.0023 15.1487 26.9883 15.1461 26.9742 15.1464H25.7221C25.6937 15.1464 25.6665 15.1575 25.6461 15.1773C25.6264 15.1967 25.6153 15.2232 25.6152 15.2509L25.6223 15.2295ZM19.1457 27.0543C19.3593 27.0543 19.5642 27.1391 19.7152 27.2902C19.8662 27.4412 19.9511 27.6461 19.9511 27.8597C19.9511 28.0733 19.8662 28.2782 19.7152 28.4292C19.5642 28.5803 19.3593 28.6651 19.1457 28.6651H2.64996C2.15279 28.6651 1.67599 28.4676 1.32444 28.1161C0.972889 27.7645 0.775391 27.2877 0.775391 26.7905V2.10992C0.775391 1.61275 0.972889 1.13595 1.32444 0.7844C1.67599 0.43285 2.15279 0.235352 2.64996 0.235352L25.6698 0.235352C26.167 0.235352 26.6438 0.43285 26.9954 0.7844C27.3469 1.13595 27.5444 1.61275 27.5444 2.10992V11.0028C27.5444 11.2164 27.4596 11.4213 27.3085 11.5724C27.1575 11.7234 26.9526 11.8083 26.739 11.8083C26.5254 11.8083 26.3205 11.7234 26.1695 11.5724C26.0184 11.4213 25.9336 11.2164 25.9336 11.0028V2.10992C25.933 2.04021 25.9048 1.97358 25.8552 1.9246C25.8059 1.87543 25.7394 1.84732 25.6698 1.8462H2.64996C2.58015 1.8475 2.5133 1.87458 2.46226 1.92223C2.415 1.9735 2.38797 2.0402 2.38624 2.10992V26.7882C2.38624 26.8581 2.41402 26.9252 2.46348 26.9747C2.51294 27.0241 2.58002 27.0519 2.64996 27.0519H19.1457V27.0543ZM10.9061 21.1621C10.7169 21.1251 10.5463 21.0235 10.4237 20.8746C10.3011 20.7257 10.2341 20.5388 10.2341 20.346C10.2341 20.1531 10.3011 19.9663 10.4237 19.8174C10.5463 19.6685 10.7169 19.5669 10.9061 19.5299H17.9221C18.1135 19.5643 18.2868 19.6648 18.4115 19.814C18.5363 19.9632 18.6047 20.1515 18.6047 20.346C18.6047 20.5405 18.5363 20.7288 18.4115 20.8779C18.2868 21.0271 18.1135 21.1277 17.9221 21.1621H10.9061ZM10.9061 9.35873C10.71 9.34003 10.5291 9.24472 10.4028 9.09348C10.2764 8.94224 10.2149 8.74729 10.2314 8.55093C10.2155 8.35521 10.2775 8.16114 10.4038 8.01081C10.5301 7.86047 10.7106 7.766 10.9061 7.74788H19.8299C20.0235 7.76891 20.2012 7.86453 20.3254 8.01447C20.4496 8.1644 20.5105 8.35684 20.4952 8.55093C20.5125 8.74593 20.4524 8.93991 20.3279 9.09103C20.2035 9.24215 20.0246 9.33829 19.8299 9.35873H10.9061ZM7.03583 19.2424C7.22379 19.2424 7.40753 19.2981 7.56382 19.4025C7.7201 19.507 7.84191 19.6554 7.91384 19.829C7.98577 20.0027 8.00459 20.1938 7.96792 20.3781C7.93125 20.5625 7.84074 20.7318 7.70783 20.8647C7.57492 20.9976 7.40558 21.0882 7.22123 21.1248C7.03688 21.1615 6.8458 21.1427 6.67215 21.0707C6.49849 20.9988 6.35007 20.877 6.24564 20.7207C6.14122 20.5644 6.08548 20.3807 6.08548 20.1927C6.08548 19.9407 6.1856 19.699 6.36383 19.5207C6.54206 19.3425 6.78378 19.2424 7.03583 19.2424ZM7.03583 13.4239C7.22379 13.4239 7.40753 13.4796 7.56382 13.584C7.7201 13.6884 7.84191 13.8369 7.91384 14.0105C7.98577 14.1842 8.00459 14.3753 7.96792 14.5596C7.93125 14.744 7.84074 14.9133 7.70783 15.0462C7.57492 15.1791 7.40558 15.2696 7.22123 15.3063C7.03688 15.343 6.8458 15.3241 6.67215 15.2522C6.49849 15.1803 6.35007 15.0585 6.24564 14.9022C6.14122 14.7459 6.08548 14.5622 6.08548 14.3742C6.08548 14.1222 6.1856 13.8804 6.36383 13.7022C6.54206 13.524 6.78378 13.4239 7.03583 13.4239ZM7.03583 7.6077C7.22379 7.6077 7.40753 7.66344 7.56382 7.76787C7.7201 7.87229 7.84191 8.02072 7.91384 8.19437C7.98577 8.36802 8.00459 8.55911 7.96792 8.74346C7.93125 8.92781 7.84074 9.09715 7.70783 9.23005C7.57492 9.36296 7.40558 9.45347 7.22123 9.49014C7.03688 9.52681 6.8458 9.50799 6.67215 9.43606C6.49849 9.36413 6.35007 9.24233 6.24564 9.08604C6.14122 8.92976 6.08548 8.74602 6.08548 8.55805C6.08548 8.306 6.1856 8.06428 6.36383 7.88605C6.54206 7.70783 6.78378 7.6077 7.03583 7.6077Z" fill="black"/>
</svg>
