<svg width="27" height="30" viewBox="0 0 27 30" fill="none" xmlns="http://www.w3.org/2000/svg">
<path fill-rule="evenodd" clip-rule="evenodd" d="M15.2761 27.3907V28.5748H2.22625C1.37497 28.5748 0.664062 27.8656 0.664062 27.0132V1.79753C0.664062 0.942862 1.37157 0.235352 2.22625 0.235352H22.3812C23.2325 0.235352 23.9434 0.94456 23.9434 1.79753V15.9794H22.7582V11.1893H1.92286L1.87079 11.187V27.1926C1.87079 27.3126 1.97098 27.4122 2.09097 27.4122L15.2761 27.3907ZM14.778 25.0293V25.7391C14.778 25.7776 14.7526 25.8031 14.7152 25.8031H3.53882C3.5009 25.8031 3.47543 25.7776 3.47543 25.7391V25.0293C3.47543 24.9914 3.5009 24.966 3.53882 24.966H14.7152C14.7531 24.966 14.778 24.9914 14.778 25.0293ZM13.7004 22.9413V23.6505C13.7004 23.6896 13.6749 23.7151 13.637 23.7151H3.53882C3.5009 23.7151 3.47543 23.6896 3.47543 23.6505V22.9413C3.47543 22.9029 3.5009 22.8774 3.53882 22.8774H13.637C13.6755 22.8774 13.7004 22.9034 13.7004 22.9413ZM12.6227 20.8528V21.5625C12.6227 21.601 12.5972 21.6265 12.5599 21.6265H3.53882C3.5009 21.6265 3.47543 21.601 3.47543 21.5625V20.8528C3.47543 20.8143 3.5009 20.7894 3.53882 20.7894H12.5599C12.5978 20.7894 12.6227 20.8148 12.6227 20.8528ZM18.5318 17.7295H25.9143C26.2839 17.7295 26.5872 18.0307 26.5872 18.4003V28.5624C26.5872 28.932 26.2839 29.2354 25.9143 29.2354H18.5318C18.1622 29.2354 17.8588 28.9337 17.8588 28.5641V18.4025C17.8588 18.0329 18.1622 17.7295 18.5318 17.7295ZM24.356 19.6902H24.5723V20.8562H24.356V19.6902ZM19.4448 22.4297H20.5044C20.5955 22.4297 20.6702 22.5049 20.6702 22.5955V23.5249C20.67 23.5688 20.6525 23.6109 20.6215 23.642C20.5904 23.6731 20.5483 23.6906 20.5044 23.6907H19.4448C19.3542 23.6907 19.2795 23.616 19.2795 23.5249V22.5955C19.2795 22.5049 19.3542 22.4297 19.4448 22.4297ZM19.4448 26.754H20.5044C20.5955 26.754 20.6702 26.8293 20.6702 26.9192V27.8498C20.6702 27.9403 20.5955 28.015 20.5044 28.015H19.4448C19.3542 28.015 19.2795 27.9403 19.2795 27.8498V26.9192C19.2795 26.8293 19.3542 26.754 19.4448 26.754ZM19.4448 24.5918H20.5044C20.5955 24.5918 20.6702 24.6671 20.6702 24.7577V25.6876C20.6702 25.7782 20.5955 25.8529 20.5044 25.8529H19.4448C19.3542 25.8529 19.2795 25.7782 19.2795 25.6876V24.7577C19.2795 24.6671 19.3542 24.5918 19.4448 24.5918ZM23.9429 22.4297H25.003C25.0935 22.4297 25.1666 22.5049 25.1666 22.5955V23.5249C25.1666 23.616 25.0918 23.6907 25.003 23.6907H23.9429C23.8523 23.6907 23.7776 23.616 23.7776 23.5249V22.5955C23.7776 22.5049 23.8506 22.4297 23.9429 22.4297ZM23.9429 26.754H25.003C25.0935 26.754 25.1666 26.8293 25.1666 26.9192V27.8498C25.1666 27.9403 25.0918 28.015 25.003 28.015H23.9429C23.8523 28.015 23.7776 27.9403 23.7776 27.8498V26.9192C23.7776 26.8293 23.8506 26.754 23.9429 26.754ZM23.9429 24.5918H25.003C25.0935 24.5918 25.1666 24.6671 25.1666 24.7577V25.6876C25.1666 25.7782 25.0918 25.8529 25.003 25.8529H23.9429C23.8523 25.8529 23.7776 25.7782 23.7776 25.6876V24.7577C23.7776 24.6671 23.8506 24.5918 23.9429 24.5918ZM21.693 22.4297H22.7525C22.8437 22.4297 22.9184 22.5049 22.9184 22.5955V23.5249C22.9182 23.5688 22.9007 23.6109 22.8696 23.642C22.8386 23.6731 22.7965 23.6906 22.7525 23.6907H21.693C21.6024 23.6907 21.5277 23.616 21.5277 23.5249V22.5955C21.5277 22.5049 21.6024 22.4297 21.693 22.4297ZM21.693 26.754H22.7525C22.8437 26.754 22.9184 26.8293 22.9184 26.9192V27.8498C22.9184 27.9403 22.8437 28.015 22.7525 28.015H21.693C21.6024 28.015 21.5277 27.9403 21.5277 27.8498V26.9192C21.5277 26.8293 21.6024 26.754 21.693 26.754ZM21.693 24.5918H22.7525C22.8437 24.5918 22.9184 24.6671 22.9184 24.7577V25.6876C22.9184 25.7782 22.8437 25.8529 22.7525 25.8529H21.693C21.6024 25.8529 21.5277 25.7782 21.5277 25.6876V24.7577C21.5277 24.6671 21.6024 24.5918 21.693 24.5918ZM19.3055 18.9985H25.1405C25.3216 18.9985 25.4716 19.1485 25.4716 19.3296V21.2156C25.4716 21.3967 25.3216 21.5467 25.1405 21.5467H19.3055C19.1244 21.5467 18.9744 21.3961 18.9744 21.2156V19.3296C18.9744 19.1485 19.1244 18.9985 19.3055 18.9985ZM25.0969 19.3732H19.3491V21.172H25.0969V19.3732ZM25.9143 18.2005H18.5318C18.4197 18.2005 18.3275 18.2899 18.3275 18.4025V28.5641C18.3275 28.6756 18.418 28.7661 18.5301 28.7661H25.9126C26.0241 28.7661 26.1146 28.6756 26.1146 28.5641V18.4025C26.1146 18.2916 26.0258 18.2005 25.9143 18.2005ZM19.7623 13.5898V14.2922C19.7623 14.3307 19.7374 14.3556 19.7001 14.3556H12.4053C12.3674 14.3556 12.3425 14.3307 12.3425 14.2922V13.5898C12.3425 13.5513 12.3674 13.5264 12.4053 13.5264H19.7001C19.7374 13.5264 19.7623 13.5513 19.7623 13.5898ZM16.4625 15.5674V16.2709C16.4625 16.3083 16.4376 16.3332 16.3991 16.3332H12.4184C12.3804 16.3332 12.355 16.3083 12.355 16.2709V15.5674C12.355 15.5295 12.3804 15.5046 12.4184 15.5046H16.3991C16.4246 15.5046 16.4625 15.5295 16.4625 15.5674ZM7.09505 16.0921L9.54586 16.1362C9.54586 17.0418 9.11343 17.8733 8.39234 18.3782L7.09505 16.0921ZM6.93091 12.3791V12.1861L7.11882 12.2013C7.34919 12.2155 7.57955 12.2602 7.79633 12.3202C8.01255 12.3791 8.21461 12.4685 8.41611 12.5721C9.59794 13.2077 10.0779 14.2729 10.1753 15.5861L6.95128 15.4972L6.93091 12.3791ZM7.30617 15.1412L9.80057 15.2153C9.69925 14.2056 9.09362 13.33 8.25706 12.8692C7.995 12.7339 7.71539 12.6349 7.42673 12.5794C7.37692 12.5698 7.32768 12.5624 7.2773 12.5574L7.30617 15.1412ZM7.67125 18.3238C7.23881 18.5757 6.7628 18.7104 6.27264 18.7104C4.7297 18.7104 3.47543 17.4182 3.47543 15.8283C3.47543 14.2842 4.65782 13.0073 6.15717 12.9479L6.27264 15.8283L7.67125 18.3238ZM22.7582 10.0635V1.66169C22.7582 1.54226 22.6591 1.44152 22.5392 1.44152H2.09097C1.96645 1.44152 1.87079 1.53887 1.87079 1.66169V10.0658L1.92286 10.0635H22.7582ZM8.20329 3.82328H9.60699C9.6602 3.82328 9.69529 3.85837 9.69529 3.91158V8.81264C9.69529 8.86585 9.6602 8.90094 9.60699 8.90094H8.20329C8.15009 8.90094 8.115 8.86585 8.115 8.81264V3.91158C8.115 3.85837 8.15009 3.82328 8.20329 3.82328ZM11.7607 5.68601H13.1644C13.2176 5.68601 13.2527 5.7211 13.2527 5.77431V8.79509C13.2527 8.8483 13.2176 8.88339 13.1644 8.88339H11.7607C11.7074 8.88339 11.6724 8.8483 11.6724 8.79509V5.77431C11.6724 5.73922 11.7074 5.68601 11.7607 5.68601ZM18.8759 5.68601H20.2796C20.3328 5.68601 20.3679 5.7211 20.3679 5.77431V8.79509C20.3679 8.8483 20.3328 8.88339 20.2796 8.88339H18.8759C18.8227 8.88339 18.7876 8.8483 18.7876 8.79509V5.77431C18.7876 5.73922 18.8227 5.68601 18.8759 5.68601ZM15.318 3.82328H16.7212C16.7749 3.82328 16.81 3.85837 16.81 3.91158V8.81264C16.81 8.86585 16.7749 8.90094 16.7212 8.90094H15.318C15.2642 8.90094 15.2292 8.86585 15.2292 8.81264V3.91158C15.2292 3.85837 15.2642 3.82328 15.318 3.82328ZM4.64593 4.49683H6.04907C6.10227 4.49683 6.13736 4.53192 6.13736 4.58626V8.81264C6.13736 8.86585 6.10227 8.90094 6.04907 8.90094H4.64593C4.59273 8.90094 4.55763 8.86585 4.55763 8.81264V4.58626C4.53952 4.53192 4.59273 4.49683 4.64593 4.49683Z" fill="black"/>
</svg>
