<svg width="36" height="30" viewBox="0 0 36 30" fill="none" xmlns="http://www.w3.org/2000/svg">
<path fill-rule="evenodd" clip-rule="evenodd" d="M10.6434 4.96577H31.5002V13.7758H10.6434V4.96577ZM7.22604 26.525C7.03396 27.1672 6.75873 27.6861 6.4233 28.0903H31.7869H31.7984C32.7129 28.0387 33.3953 27.795 33.8511 27.3621C34.2983 26.9378 34.5478 26.3042 34.6022 25.4642V1.37352H7.49553V24.3261C7.49553 25.3008 7.507 25.5846 7.22604 26.525ZM4.28171 29.2285C4.1527 29.2371 4.02083 29.2371 3.89181 29.2314C3.37004 29.1998 2.85686 29.0393 2.39242 28.7669C1.37466 28.1677 0.589126 27.021 0.517453 25.5216C0.514586 25.4986 0.511719 25.4728 0.511719 25.4499V5.26679C0.511719 4.95143 0.766874 4.69914 1.07937 4.69914H6.35736V0.803001C6.35736 0.48764 6.61252 0.235352 6.92501 0.235352H35.1699C35.4852 0.235352 35.7375 0.490507 35.7375 0.803001V25.4786C35.7375 25.5101 35.7347 25.5388 35.7318 25.5674C35.6544 26.6855 35.2874 27.5599 34.6309 28.1849C33.9772 28.8071 33.0541 29.1539 31.8586 29.2228C31.8357 29.2256 31.8099 29.2285 31.7841 29.2285H4.28171ZM3.96635 28.0989C3.99502 28.0932 4.02656 28.0903 4.0581 28.0903H4.26451C4.491 28.0674 4.71175 28.0043 4.91817 27.8954C6.18248 27.2331 6.35736 25.6162 6.35736 24.3347V5.83444H1.64988V25.447C1.64988 25.4528 1.64988 25.4614 1.64988 25.4671C1.70436 26.5451 2.25767 27.365 2.97153 27.7864C3.28116 27.9699 3.61946 28.076 3.95489 28.0961L3.96635 28.0989ZM12.2288 7.15896H13.3469L14.8004 9.60157V7.15896H15.93V11.5797H14.8004L13.3555 9.15147V11.5797H12.2317V7.15896H12.2288ZM16.9134 7.15896H20.1157V8.10504H18.1146V8.8103H19.9695V9.71051H18.1146V10.5821H20.1759V11.5826H16.9134V7.15896ZM20.6145 7.15896H21.7498L22.1569 9.62737L22.7561 7.15896H23.8828L24.4849 9.63024L24.8949 7.15896H26.0273L25.1729 11.5797H24.0004L23.3209 8.79597L22.6443 11.5797H21.4718L20.6145 7.15896ZM26.4028 10.1205L27.5381 10.0402C27.5611 10.2495 27.6127 10.41 27.6872 10.519C27.8105 10.6967 27.9854 10.7856 28.2147 10.7856C28.3839 10.7856 28.5158 10.7397 28.6075 10.648C28.6992 10.5563 28.7451 10.4502 28.7451 10.3298C28.7451 10.2151 28.7021 10.1119 28.6132 10.023C28.5272 9.93127 28.3208 9.84813 28.0026 9.76785C27.4779 9.63311 27.1052 9.45536 26.8816 9.23174C26.6551 9.00812 26.5433 8.72429 26.5433 8.38026C26.5433 8.15378 26.6007 7.93876 26.7153 7.73807C26.83 7.53452 27.0049 7.37684 27.2343 7.26217C27.4665 7.14749 27.7847 7.09015 28.1861 7.09015C28.682 7.09015 29.0576 7.19623 29.3185 7.40551C29.5794 7.6148 29.7313 7.95023 29.7829 8.40893L28.6591 8.48634C28.6304 8.28566 28.5674 8.13944 28.4699 8.0477C28.3724 7.95596 28.2405 7.91009 28.0714 7.91009C27.9338 7.91009 27.8277 7.94449 27.756 8.01043C27.6844 8.07637 27.65 8.15951 27.65 8.25699C27.65 8.32579 27.6786 8.38886 27.736 8.4462C27.7904 8.50354 27.9252 8.55801 28.1345 8.60962C28.6562 8.73863 29.0318 8.86764 29.2554 8.99952C29.4819 9.1314 29.6453 9.29481 29.7485 9.48976C29.8518 9.68471 29.9034 9.9026 29.9034 10.1434C29.9034 10.4272 29.8345 10.6881 29.6969 10.929C29.5593 11.1669 29.3672 11.3504 29.1207 11.4737C28.8741 11.5969 28.5645 11.66 28.1889 11.66C27.5295 11.66 27.0737 11.5138 26.8214 11.2242C26.5806 10.9318 26.4373 10.5649 26.4028 10.1205ZM10.7753 17.6805C10.4599 17.6805 10.2076 17.4254 10.2076 17.1129C10.2076 16.8004 10.4628 16.5452 10.7753 16.5452H19.4477C19.7602 16.5452 20.0154 16.8004 20.0154 17.1129C20.0154 17.4254 19.7602 17.6805 19.4477 17.6805H10.7753ZM21.9362 17.6805C21.6208 17.6805 21.3657 17.4254 21.3657 17.11C21.3657 16.7947 21.6208 16.5395 21.9362 16.5395H31.2909C31.6063 16.5395 31.8615 16.7947 31.8615 17.11C31.8615 17.4254 31.6063 17.6805 31.2909 17.6805H21.9362ZM21.9362 20.9804C21.6208 20.9804 21.3657 20.7252 21.3657 20.4099C21.3657 20.0945 21.6208 19.8393 21.9362 19.8393H31.2909C31.6063 19.8393 31.8615 20.0945 31.8615 20.4099C31.8615 20.7252 31.6063 20.9804 31.2909 20.9804H21.9362ZM21.9362 24.2802C21.6208 24.2802 21.3657 24.025 21.3657 23.7097C21.3657 23.3943 21.6208 23.1392 21.9362 23.1392H31.2909C31.6063 23.1392 31.8615 23.3943 31.8615 23.7097C31.8615 24.025 31.6063 24.2802 31.2909 24.2802H21.9362ZM10.7753 24.2802C10.4599 24.2802 10.2076 24.025 10.2076 23.7125C10.2076 23.4 10.4628 23.1449 10.7753 23.1449H19.4477C19.7602 23.1449 20.0154 23.4 20.0154 23.7125C20.0154 24.025 19.7602 24.2802 19.4477 24.2802H10.7753ZM11.0505 20.9804C10.7351 20.9804 10.4829 20.7252 10.4829 20.4127C10.4829 20.1002 10.738 19.8451 11.0505 19.8451H19.7229C20.0383 19.8451 20.2906 20.1002 20.2906 20.4127C20.2906 20.7252 20.0354 20.9804 19.7229 20.9804H11.0505Z" fill="black"/>
</svg>
