<svg width="23" height="30" viewBox="0 0 23 30" fill="none" xmlns="http://www.w3.org/2000/svg">
<path fill-rule="evenodd" clip-rule="evenodd" d="M4.83994 0.24655H21.9005V13.685H12.1786C11.7278 13.6844 11.2951 13.8627 10.9757 14.1808C10.6563 14.4989 10.4761 14.9308 10.4749 15.3816V21.4838H4.60161C3.01118 21.6277 3.57514 23.7491 4.60161 23.6382H10.4749V24.9384H4.67004C2.28203 24.9714 1.49154 24.844 1.49154 23.0954V21.1652C1.23224 21.1186 0.997564 20.9824 0.828547 20.7803C0.659531 20.5782 0.566926 20.3231 0.566926 20.0597C0.566926 19.7962 0.659531 19.5412 0.828547 19.3391C0.997564 19.137 1.23224 19.0008 1.49154 18.9542V17.1821C1.23224 17.1355 0.997564 16.9992 0.828547 16.7971C0.659531 16.5951 0.566926 16.34 0.566926 16.0765C0.566926 15.8131 0.659531 15.558 0.828547 15.3559C0.997564 15.1538 1.23224 15.0176 1.49154 14.971V13.1989C1.23224 13.1523 0.997564 13.0161 0.828547 12.814C0.659531 12.6119 0.566926 12.3568 0.566926 12.0934C0.566926 11.8299 0.659531 11.5749 0.828547 11.3728C0.997564 11.1707 1.23224 11.0344 1.49154 10.9879V9.21574C1.22522 9.18376 0.981092 9.05152 0.808817 8.84593C0.636542 8.64034 0.549063 8.37684 0.564177 8.10904C0.550198 7.8415 0.638087 7.57861 0.810152 7.37327C0.982217 7.16793 1.22568 7.03539 1.49154 7.00235V5.23258C1.22545 5.20006 0.981656 5.06768 0.809487 4.86221C0.637317 4.65675 0.549632 4.39355 0.564177 4.12588C0.549632 3.85821 0.637317 3.59502 0.809487 3.38955C0.981656 3.18409 1.22545 3.0517 1.49154 3.01919C1.4939 0.70669 1.62604 0.145084 4.83994 0.24655ZM13.1201 15.4807H22.153C22.361 15.482 22.5602 15.5651 22.7072 15.7122C22.8543 15.8593 22.9375 16.0585 22.9388 16.2665V28.4449C22.938 28.5483 22.9167 28.6505 22.8762 28.7457C22.8357 28.8409 22.7768 28.9271 22.7028 28.9994C22.6308 29.0738 22.5447 29.133 22.4494 29.1736C22.3542 29.2141 22.2518 29.2351 22.1483 29.2354H13.1201C12.9121 29.2341 12.7129 29.1509 12.5658 29.0038C12.4187 28.8567 12.3356 28.6576 12.3343 28.4496V16.2665C12.3356 16.0585 12.4187 15.8593 12.5658 15.7122C12.7129 15.5651 12.9121 15.482 13.1201 15.4807ZM21.169 17.4204H14.1064V19.5583H21.169V17.4204ZM19.8358 23.8128H21.0935C21.1454 23.8128 21.1952 23.8334 21.232 23.8701C21.2687 23.9069 21.2893 23.9567 21.2893 24.0086V25.0729C21.2893 25.1248 21.2687 25.1746 21.232 25.2113C21.1952 25.2481 21.1454 25.2687 21.0935 25.2687H19.8358C19.7836 25.2687 19.7335 25.2482 19.6964 25.2115C19.6593 25.1748 19.6382 25.125 19.6376 25.0729V24.0086C19.6382 23.9565 19.6593 23.9067 19.6964 23.87C19.7335 23.8333 19.7836 23.8128 19.8358 23.8128ZM19.8358 21.2879H21.0935C21.1456 21.2885 21.1955 21.3097 21.2321 21.3468C21.2688 21.3839 21.2893 21.434 21.2893 21.4861V22.548C21.2893 22.5999 21.2687 22.6497 21.232 22.6865C21.1952 22.7232 21.1454 22.7438 21.0935 22.7438H19.8358C19.7836 22.7438 19.7335 22.7233 19.6964 22.6866C19.6593 22.65 19.6382 22.6001 19.6376 22.548V21.4861C19.6382 21.4337 19.6593 21.3837 19.6963 21.3466C19.7333 21.3096 19.7834 21.2885 19.8358 21.2879ZM19.8358 26.3377H21.0935C21.1454 26.3377 21.1952 26.3583 21.232 26.395C21.2687 26.4317 21.2893 26.4816 21.2893 26.5335V27.6072C21.2893 27.6593 21.2688 27.7094 21.2321 27.7465C21.1955 27.7836 21.1456 27.8048 21.0935 27.8054H19.8358C19.7832 27.8054 19.7328 27.7845 19.6956 27.7473C19.6584 27.7101 19.6376 27.6597 19.6376 27.6072V26.5453C19.6388 26.4933 19.6601 26.4439 19.6971 26.4073C19.7341 26.3708 19.7838 26.35 19.8358 26.3494V26.3377ZM17.0041 23.8128H18.2619C18.314 23.8128 18.3641 23.8333 18.4012 23.87C18.4383 23.9067 18.4594 23.9565 18.4601 24.0086V25.0729C18.4594 25.125 18.4383 25.1748 18.4012 25.2115C18.3641 25.2482 18.314 25.2687 18.2619 25.2687H16.9947C16.9425 25.2687 16.8925 25.2482 16.8554 25.2115C16.8183 25.1748 16.7971 25.125 16.7965 25.0729V24.0086C16.7971 23.9565 16.8183 23.9067 16.8554 23.87C16.8925 23.8333 16.9425 23.8128 16.9947 23.8128H17.0041ZM17.0041 21.2879H18.2619C18.3142 21.2885 18.3643 21.3096 18.4013 21.3466C18.4384 21.3837 18.4595 21.4337 18.4601 21.4861V22.548C18.4594 22.6001 18.4383 22.65 18.4012 22.6866C18.3641 22.7233 18.314 22.7438 18.2619 22.7438H16.9947C16.9425 22.7438 16.8925 22.7233 16.8554 22.6866C16.8183 22.65 16.7971 22.6001 16.7965 22.548V21.4861C16.7971 21.4337 16.8182 21.3837 16.8552 21.3466C16.8923 21.3096 16.9423 21.2885 16.9947 21.2879H17.0041ZM17.0041 26.3377H18.2619C18.314 26.3376 18.3641 26.3582 18.4012 26.3949C18.4383 26.4315 18.4594 26.4813 18.4601 26.5335V27.6072C18.4595 27.6595 18.4384 27.7096 18.4013 27.7466C18.3643 27.7837 18.3142 27.8048 18.2619 27.8054H16.9947C16.9421 27.8054 16.8917 27.7845 16.8545 27.7473C16.8174 27.7101 16.7965 27.6597 16.7965 27.6072V26.5453C16.7977 26.4933 16.8191 26.4439 16.856 26.4073C16.893 26.3708 16.9427 26.35 16.9947 26.3494L17.0041 26.3377ZM14.2055 21.2879H15.4633C15.5158 21.2879 15.5662 21.3088 15.6034 21.346C15.6406 21.3831 15.6615 21.4336 15.6615 21.4861V22.548C15.6609 22.6001 15.6397 22.65 15.6026 22.6866C15.5655 22.7233 15.5154 22.7438 15.4633 22.7438H14.2055C14.1536 22.7438 14.1038 22.7232 14.0671 22.6865C14.0303 22.6497 14.0097 22.5999 14.0097 22.548V21.4861C14.0097 21.434 14.0302 21.3839 14.0669 21.3468C14.1036 21.3097 14.1534 21.2885 14.2055 21.2879ZM14.2055 26.3377H15.4633C15.5154 26.3376 15.5655 26.3582 15.6026 26.3949C15.6397 26.4315 15.6609 26.4813 15.6615 26.5335V27.6072C15.6615 27.6597 15.6406 27.7101 15.6034 27.7473C15.5662 27.7845 15.5158 27.8054 15.4633 27.8054H14.2055C14.1542 27.8035 14.1056 27.7819 14.0699 27.7449C14.0343 27.7079 14.0144 27.6585 14.0144 27.6072V26.5453C14.015 26.4935 14.0359 26.4441 14.0725 26.4075C14.1091 26.3709 14.1585 26.3501 14.2103 26.3494L14.2055 26.3377ZM14.2055 23.8128H15.4633C15.5154 23.8128 15.5655 23.8333 15.6026 23.87C15.6397 23.9067 15.6609 23.9565 15.6615 24.0086V25.0729C15.6609 25.125 15.6397 25.1748 15.6026 25.2115C15.5655 25.2482 15.5154 25.2687 15.4633 25.2687H14.2055C14.1536 25.2687 14.1038 25.2481 14.0671 25.2113C14.0303 25.1746 14.0097 25.1248 14.0097 25.0729V24.0086C14.0097 23.9567 14.0303 23.9069 14.0671 23.8701C14.1038 23.8334 14.1536 23.8128 14.2055 23.8128ZM22.153 16.0046H13.1201C13.051 16.0052 12.985 16.0331 12.9364 16.0821C12.8878 16.1312 12.8605 16.1974 12.8605 16.2665V28.4449C12.8605 28.5139 12.8878 28.5802 12.9364 28.6292C12.985 28.6783 13.051 28.7062 13.1201 28.7068H22.153C22.2221 28.7056 22.288 28.6776 22.3369 28.6287C22.3857 28.5799 22.4137 28.5139 22.4149 28.4449V16.2665C22.4137 16.1974 22.3857 16.1315 22.3369 16.0826C22.288 16.0338 22.2221 16.0058 22.153 16.0046ZM11.952 5.25381C11.8323 5.23732 11.7234 5.1755 11.6479 5.08111C11.5724 4.98671 11.536 4.86694 11.5462 4.74648C11.5379 4.62719 11.5751 4.5092 11.6505 4.41634C11.7258 4.32348 11.8336 4.26268 11.952 4.24623H19.0948C19.2146 4.26272 19.3234 4.32454 19.399 4.41893C19.4745 4.51333 19.5109 4.6331 19.5007 4.75356C19.5109 4.87401 19.4745 4.99379 19.399 5.08819C19.3234 5.18258 19.2146 5.2444 19.0948 5.26089L11.952 5.25381ZM11.952 10.3956C11.8362 10.3704 11.7324 10.3064 11.658 10.2141C11.5835 10.1218 11.543 10.0068 11.543 9.88825C11.543 9.76968 11.5835 9.65469 11.658 9.56239C11.7324 9.47009 11.8362 9.40605 11.952 9.38091H16.6478C16.7637 9.40605 16.8675 9.47009 16.9419 9.56239C17.0163 9.65469 17.0569 9.76968 17.0569 9.88825C17.0569 10.0068 17.0163 10.1218 16.9419 10.2141C16.8675 10.3064 16.7637 10.3704 16.6478 10.3956H11.952ZM11.952 7.82352C11.8318 7.80702 11.7226 7.74486 11.647 7.64995C11.5715 7.55504 11.5353 7.43467 11.5462 7.31382C11.5366 7.19376 11.5733 7.07458 11.6488 6.98069C11.7242 6.88681 11.8327 6.82533 11.952 6.80885H17.6271C17.7451 6.82696 17.8519 6.88913 17.9259 6.98284C17.9999 7.07655 18.0356 7.19482 18.0259 7.31382C18.0361 7.43428 17.9997 7.55405 17.9242 7.64845C17.8486 7.74285 17.7398 7.80466 17.62 7.82116L11.952 7.82352ZM6.93534 10.4546C6.73477 10.4428 6.69937 10.4263 6.50824 10.4003C6.3171 10.3743 6.17316 10.3531 6.01506 10.3248C5.85696 10.2965 5.70594 10.2611 5.55964 10.2233V8.92313C5.75078 8.93965 5.95843 8.95381 6.18024 8.96325C6.40205 8.97269 6.62622 8.98448 6.85511 8.9892C7.084 8.99392 7.29637 8.9892 7.49223 8.9892C7.65063 8.99269 7.80893 8.97845 7.96417 8.94673C8.06778 8.92896 8.16428 8.88234 8.24261 8.81223C8.27458 8.77821 8.2994 8.73813 8.31561 8.69436C8.33182 8.65059 8.33909 8.60401 8.337 8.55738V8.45591C8.34011 8.40214 8.32963 8.34845 8.30654 8.29979C8.28345 8.25113 8.24848 8.20906 8.20486 8.17747C8.11413 8.1149 8.00591 8.08268 7.89574 8.08544H7.44739C6.79297 8.08544 6.29744 7.9415 5.96079 7.65362C5.62414 7.36574 5.45503 6.88436 5.45346 6.20949V5.94048C5.43432 5.68206 5.47455 5.42267 5.57107 5.18219C5.6676 4.9417 5.81785 4.72648 6.01034 4.55299C6.26044 4.30781 6.5868 4.15545 6.93534 4.12116V3.58315H8.20014V4.10228C8.66374 4.136 9.12292 4.21503 9.57112 4.33825V5.63844C9.31155 5.61721 9.02131 5.59833 8.69567 5.58417C8.37003 5.57001 8.07743 5.56293 7.81315 5.56293C7.67156 5.56157 7.53015 5.57342 7.39076 5.59833C7.28371 5.61167 7.18369 5.65878 7.10524 5.73283C7.06903 5.77243 7.04133 5.81904 7.02388 5.86978C7.00643 5.92052 6.99958 5.9743 7.00377 6.02779V6.11274C6.99995 6.17298 7.0101 6.23329 7.03343 6.28896C7.05677 6.34462 7.09265 6.39415 7.13828 6.43366C7.25974 6.51539 7.40527 6.55364 7.55122 6.54221H8.11519C8.45738 6.53384 8.79581 6.61519 9.09682 6.77817C9.35037 6.91773 9.55657 7.12968 9.6891 7.38697C9.82476 7.65771 9.89277 7.95729 9.88731 8.26006V8.5385C9.91442 8.96503 9.81773 9.39031 9.60887 9.76318C9.42307 10.0379 9.14384 10.2358 8.82309 10.3201C8.62635 10.3918 8.42072 10.4362 8.21193 10.4522V11.0539H6.93534V10.4546Z" fill="black"/>
</svg>
