<svg width="28" height="30" viewBox="0 0 28 30" fill="none" xmlns="http://www.w3.org/2000/svg">
<path d="M17.8307 25.9692C17.7434 26.427 17.59 26.8471 17.3682 27.2318C17.1392 27.6259 16.8395 27.9822 16.4714 28.2937C16.1009 28.6052 15.6997 28.8412 15.2631 28.9994C14.8265 29.1575 14.3639 29.2354 13.8754 29.2354C13.3846 29.2354 12.922 29.1551 12.4878 28.9994C12.0535 28.8412 11.65 28.6076 11.2818 28.2937C10.9113 27.9799 10.614 27.6259 10.385 27.2318C10.1561 26.8376 10.0004 26.4034 9.91542 25.9267C9.87294 25.6954 10.0287 25.4736 10.26 25.4311C10.2671 25.4311 10.3355 25.424 10.3355 25.424H17.4201C17.6561 25.424 17.8496 25.6152 17.8496 25.8535C17.8472 25.8937 17.8401 25.9314 17.8307 25.9692ZM4.94299 0.295221C5.37486 0.122944 5.86337 0.33534 6.03565 0.767212C6.20793 1.19908 5.99553 1.68759 5.56366 1.85987C4.62912 2.23274 3.84561 2.74957 3.22023 3.4198C2.5972 4.09003 2.12757 4.92073 1.82077 5.91899C1.68389 6.36267 1.2119 6.61282 0.768231 6.47594C0.32456 6.33907 0.0744046 5.86707 0.211282 5.4234C0.595955 4.17263 1.19066 3.12481 1.98597 2.2705C2.78127 1.41856 3.77009 0.762492 4.94299 0.295221ZM22.1848 1.85987C21.753 1.68759 21.5406 1.19908 21.7128 0.767212C21.8851 0.33534 22.3736 0.122944 22.8055 0.295221C23.9784 0.762492 24.9672 1.41856 25.7625 2.27286C26.5578 3.12953 27.1549 4.17735 27.5372 5.42576C27.6741 5.86943 27.4239 6.34143 26.9803 6.4783C26.5366 6.61518 26.0646 6.36503 25.9277 5.92135C25.6209 4.92073 25.1513 4.09003 24.5283 3.42216C23.9029 2.74957 23.1194 2.23274 22.1848 1.85987ZM17.144 3.05401C17.6254 3.24516 18.0879 3.47408 18.5316 3.74076C18.5481 3.75256 18.567 3.762 18.5835 3.77379C19.0083 4.03575 19.4048 4.32366 19.7682 4.63518C20.5447 5.30305 21.1913 6.08655 21.7034 6.97389C21.9583 7.41757 22.1777 7.88012 22.3595 8.35683C22.5459 8.85006 22.6851 9.35273 22.7795 9.86956C22.8716 10.3888 22.9188 10.9197 22.9188 11.4649C22.9188 12.541 22.9188 13.1239 22.9188 13.1947C22.9211 13.747 22.9235 14.2874 22.9282 14.8137V14.8184C22.9306 15.2951 22.9613 15.7742 23.0202 16.2532C23.0792 16.7276 23.1642 17.1854 23.2751 17.6267C23.386 18.061 23.5371 18.481 23.7235 18.8822C23.917 19.2952 24.153 19.7011 24.4291 20.0952H24.4315C24.7053 20.4823 25.0475 20.8669 25.4581 21.2445C25.8829 21.6339 26.3737 22.0186 26.9354 22.3915C27.2564 22.6062 27.3437 23.0428 27.1266 23.3638C26.9921 23.5644 26.7702 23.6753 26.5437 23.6753V23.6777H20.2072H13.8754H7.53894H1.20482C0.815431 23.6777 0.501556 23.3638 0.501556 22.9744C0.501556 22.7195 0.638434 22.4953 0.84139 22.3726C1.41014 21.9879 1.89865 21.6056 2.30692 21.228C2.71283 20.8528 3.05267 20.4681 3.32642 20.0716C3.3335 20.0598 3.34294 20.048 3.35238 20.0386C3.6167 19.6516 3.84325 19.2575 4.02969 18.8563C4.22085 18.448 4.37424 18.0279 4.48752 17.5961C4.48988 17.5866 4.49224 17.5772 4.4946 17.5701C4.60316 17.15 4.68576 16.7063 4.7424 16.2414C4.79904 15.7742 4.82971 15.2904 4.82971 14.7924V11.4649C4.82971 10.9292 4.87691 10.3982 4.97367 9.8672C5.07043 9.33857 5.20967 8.83118 5.3961 8.34739C5.58018 7.8636 5.80202 7.39869 6.05925 6.95501C6.57844 6.05823 7.22271 5.28181 8.01093 4.60922C8.39561 4.28119 8.81096 3.98147 9.25699 3.7148C9.70774 3.44576 10.175 3.21921 10.6564 3.03513C10.9916 2.90769 11.3385 2.80149 11.6925 2.71417C11.8128 2.29174 12.0205 1.94955 12.3155 1.68759C12.7214 1.32652 13.2548 1.14716 13.9179 1.15424C14.574 1.15896 15.105 1.34068 15.5062 1.70175C16.9245 2.96433 15.1592 2.2705 17.144 3.05401Z" fill="black"/>
</svg>
