<svg width="45" height="30" viewBox="0 0 45 30" fill="none" xmlns="http://www.w3.org/2000/svg">
<path fill-rule="evenodd" clip-rule="evenodd" d="M2.24256 17.5132H6.39409C6.52139 17.5141 6.64316 17.5653 6.73284 17.6557C6.82252 17.746 6.87285 17.8682 6.87284 17.9955V28.7423C6.87284 28.8693 6.8224 28.9911 6.73262 29.0808C6.64284 29.1706 6.52107 29.2211 6.39409 29.2211H2.24256C2.11526 29.2211 1.99312 29.1707 1.90276 29.0811C1.81241 28.9914 1.76118 28.8696 1.76024 28.7423V17.9955C1.76117 17.8679 1.81229 17.7457 1.90254 17.6555C1.99279 17.5652 2.11493 17.5141 2.24256 17.5132ZM41.9965 6.51624C42.476 6.51551 42.9451 6.65539 43.3458 6.91859C43.7465 7.18178 44.0612 7.55672 44.251 7.99699C44.4408 8.43726 44.4973 8.92351 44.4135 9.39556C44.3297 9.8676 44.1093 10.3047 43.7795 10.6527C43.4498 11.0008 43.0253 11.2445 42.5584 11.3537C42.0916 11.4628 41.603 11.4327 41.1531 11.267C40.7033 11.1013 40.3119 10.8072 40.0274 10.4213C39.743 10.0354 39.5779 9.57453 39.5528 9.09577L33.2219 4.6477C32.7985 4.95944 32.2864 5.12724 31.7606 5.12644C31.2108 5.12756 30.6769 4.94244 30.2458 4.60125L24.9295 8.6456C24.9439 8.75098 24.9511 8.85722 24.951 8.96358C24.9508 9.30422 24.8795 9.64109 24.7417 9.9526C24.6038 10.2641 24.4025 10.5434 24.1505 10.7727C23.8985 11.0019 23.6014 11.176 23.2783 11.2838C22.9552 11.3917 22.6131 11.4308 22.274 11.3989C21.9348 11.3669 21.6061 11.2645 21.3088 11.0982C21.0115 10.9319 20.7522 10.7053 20.5475 10.4331C20.3428 10.1608 20.1972 9.84876 20.12 9.51698C20.0428 9.18519 20.0357 8.84095 20.0992 8.50626L14.6757 4.57624C14.2487 4.91686 13.7203 5.10533 13.1742 5.1118C12.628 5.11827 12.0953 4.94238 11.6603 4.61197L5.44732 9.04932C5.42858 9.60922 5.2186 10.1458 4.85234 10.5697C4.48609 10.9936 3.98566 11.2792 3.43441 11.3791C2.88316 11.4789 2.31436 11.3868 1.82273 11.1182C1.3311 10.8496 0.946319 10.4207 0.732471 9.90293C0.518622 9.38514 0.488613 8.80972 0.64744 8.27249C0.806267 7.73526 1.14434 7.26866 1.60537 6.95039C2.06639 6.63212 2.62253 6.4814 3.18117 6.52332C3.73982 6.56524 4.26724 6.79727 4.6756 7.18078L10.7064 2.89348C10.7064 2.82202 10.7064 2.75414 10.7064 2.68268C10.7064 2.03361 10.9642 1.41112 11.4232 0.952159C11.8822 0.493195 12.5047 0.235352 13.1537 0.235352C13.8028 0.235352 14.4253 0.493195 14.8843 0.952159C15.3432 1.41112 15.6011 2.03361 15.6011 2.68268C15.6011 2.7327 15.6011 2.78272 15.6011 2.82917L21.2103 6.88424C21.5998 6.64716 22.0477 6.52343 22.5036 6.52696C23.0035 6.52581 23.4914 6.67931 23.9006 6.96641L29.3204 2.82917C29.3204 2.77915 29.3204 2.72913 29.3204 2.67911C29.3446 2.04575 29.6132 1.44639 30.0699 1.00685C30.5265 0.567308 31.1357 0.321765 31.7695 0.321765C32.4034 0.321765 33.0125 0.567308 33.4692 1.00685C33.9258 1.44639 34.1945 2.04575 34.2187 2.67911C34.2242 2.76119 34.2242 2.84355 34.2187 2.92563L40.3245 7.21293C40.7712 6.77384 41.3702 6.52424 41.9965 6.51624ZM38.6024 16.5199H42.754C42.8199 16.5189 42.8854 16.5313 42.9463 16.5564C43.0073 16.5815 43.0626 16.6188 43.1087 16.6659C43.1548 16.713 43.1909 16.7691 43.2146 16.8306C43.2384 16.8921 43.2494 16.9578 43.247 17.0237V28.7423C43.2461 28.8696 43.1948 28.9914 43.1045 29.0811C43.0141 29.1707 42.892 29.2211 42.7647 29.2211H38.6131C38.4862 29.2211 38.3644 29.1706 38.2746 29.0808C38.1848 28.9911 38.1344 28.8693 38.1344 28.7423V17.0237C38.1344 16.8964 38.1847 16.7743 38.2744 16.6839C38.3641 16.5936 38.4858 16.5423 38.6131 16.5414L38.6024 16.5199ZM29.5205 10.4105H33.672C33.7997 10.4115 33.9218 10.4626 34.0121 10.5528C34.1023 10.6431 34.1534 10.7652 34.1544 10.8929V28.7566C34.1534 28.8839 34.1022 29.0057 34.0118 29.0953C33.9215 29.185 33.7993 29.2354 33.672 29.2354H29.5205C29.4576 29.2354 29.3954 29.223 29.3373 29.1989C29.2792 29.1748 29.2264 29.1396 29.182 29.0951C29.1375 29.0507 29.1023 28.9979 29.0782 28.9398C29.0541 28.8817 29.0417 28.8195 29.0417 28.7566V10.8929C29.0413 10.8297 29.0533 10.7671 29.0772 10.7086C29.101 10.6501 29.1362 10.5969 29.1807 10.552C29.2252 10.5072 29.2781 10.4716 29.3365 10.4473C29.3948 10.423 29.4573 10.4105 29.5205 10.4105ZM20.4279 16.5271H24.5794C24.6436 16.5275 24.7072 16.5408 24.7662 16.5662C24.8253 16.5915 24.8787 16.6284 24.9233 16.6746C24.9679 16.7209 25.0028 16.7756 25.0259 16.8356C25.0491 16.8955 25.06 16.9595 25.0581 17.0237V28.7423C25.0581 28.8693 25.0077 28.9911 24.9179 29.0808C24.8281 29.1706 24.7064 29.2211 24.5794 29.2211H20.4279C20.3009 29.2211 20.1791 29.1706 20.0893 29.0808C19.9995 28.9911 19.9491 28.8693 19.9491 28.7423V17.0237C19.9491 16.8964 19.9994 16.7743 20.0891 16.6839C20.1788 16.5936 20.3006 16.5423 20.4279 16.5414V16.5271ZM11.3352 10.4105H15.4867C15.614 10.4115 15.7358 10.4627 15.8255 10.5531C15.9152 10.6434 15.9655 10.7656 15.9655 10.8929V28.7566C15.9655 28.8195 15.9531 28.8817 15.929 28.9398C15.905 28.9979 15.8697 29.0507 15.8253 29.0951C15.7808 29.1396 15.728 29.1748 15.6699 29.1989C15.6119 29.223 15.5496 29.2354 15.4867 29.2354H11.3352C11.2079 29.2354 11.0858 29.185 10.9954 29.0953C10.9051 29.0057 10.8538 28.8839 10.8529 28.7566V10.8929C10.8529 10.7649 10.9037 10.6423 10.9942 10.5518C11.0846 10.4614 11.2073 10.4105 11.3352 10.4105Z" fill="black"/>
</svg>
