<svg width="26" height="30" viewBox="0 0 26 30" fill="none" xmlns="http://www.w3.org/2000/svg">
<path fill-rule="evenodd" clip-rule="evenodd" d="M19.3545 14.8825H23.0566V14.1674C22.8449 13.3851 22.5078 12.8548 22.0712 12.5323C21.6346 12.2103 21.0686 12.0726 20.4042 12.0772L5.22071 12.0806C4.84681 12.0806 4.54425 11.7781 4.54425 11.4057C4.54425 11.0326 4.84681 10.7307 5.22071 10.7307L20.3864 10.7325C21.3407 10.7233 22.1828 10.9402 22.8742 11.4516C22.9364 11.4975 22.9973 11.5457 23.0566 11.5962V11.1904C23.0566 10.5603 22.796 9.98405 22.3767 9.56566C21.9608 9.14727 21.3844 8.88843 20.7494 8.88843H20.261L20.1983 8.88556L19.9596 9.77859H18.3191L19.2923 6.13588C18.4744 5.91779 17.9866 5.07412 18.2058 4.258L12.7923 2.81113C12.5732 3.62668 11.7282 4.11451 10.9114 3.89585L9.32204 9.77859H7.63031L10.2044 0.235352L21.6916 3.30643L20.559 7.53798H20.7494C21.7531 7.53798 22.6683 7.95063 23.3321 8.61237C23.9971 9.27296 24.4095 10.1878 24.4095 11.1904V14.9204C24.8001 14.9979 25.1493 15.1907 25.4202 15.461C25.7774 15.8174 26 16.311 26 16.8545V21.2938C26 21.8603 25.7676 22.3757 25.3949 22.747C25.1285 23.0127 24.7892 23.2073 24.4095 23.2963V25.9742C24.4095 26.9763 23.9965 27.8905 23.3327 28.5528L23.2901 28.5919C22.6286 29.2306 21.7307 29.6267 20.7494 29.6267H3.66013C2.65522 29.6267 1.73889 29.2152 1.07509 28.5534C0.412434 27.8923 0 26.9791 0 25.9742V11.1904C0 10.1849 0.411858 9.27181 1.07451 8.61065C1.73717 7.94949 2.65292 7.53798 3.66013 7.53798H5.79535L5.80456 7.53856L7.50434 1.23972L9.12589 1.67304L6.89805 9.77859H5.2L5.44044 8.88843H3.66013C3.02681 8.88843 2.44987 9.14784 2.03111 9.56509C1.61292 9.98233 1.35292 10.5586 1.35292 11.1904V25.9742C1.35292 26.6061 1.6135 27.1812 2.03226 27.5984C2.45102 28.0168 3.02854 28.2768 3.66013 28.2768H20.7494C21.3666 28.2768 21.9309 28.03 22.345 27.6311L22.3761 27.5978C22.7954 27.18 23.0566 26.6038 23.0566 25.9742V23.3508H19.3545C18.2109 23.3508 17.1709 22.8836 16.4197 22.1341L16.3489 22.0566C15.638 21.3105 15.1996 20.305 15.1996 19.2053V19.0274C15.1996 17.8916 15.6673 16.8562 16.4197 16.1038L16.4272 16.0964C17.1807 15.3474 18.2173 14.8825 19.3545 14.8825ZM13.849 9.54156C14.8378 9.80556 15.856 9.22016 16.1206 8.23301C16.3858 7.24643 15.7979 6.23058 14.8091 5.96657C13.8197 5.70257 12.8015 6.28797 12.5369 7.27512C12.2723 8.2617 12.8602 9.27698 13.849 9.54156ZM20.8403 17.9737L20.8437 17.9765C21.4724 18.6056 21.4707 19.6289 20.8426 20.2573L20.8397 20.2608C20.2092 20.8881 19.1836 20.8863 18.5532 20.2596L18.5503 20.2567C17.9216 19.6277 17.9233 18.6044 18.5515 17.9754L18.5543 17.9725C19.1848 17.3452 20.2104 17.3464 20.8403 17.9737Z" fill="black"/>
</svg>
