<svg width="26" height="30" viewBox="0 0 26 30" fill="none" xmlns="http://www.w3.org/2000/svg">
<path fill-rule="evenodd" clip-rule="evenodd" d="M4.95328 0.235352H24.8821V22.4771C24.8467 23.0978 24.0443 23.1143 23.1757 23.0742H4.65827C3.45933 23.0742 2.47752 24.0536 2.47752 25.2549C2.47752 26.4539 3.45697 27.4357 4.65827 27.4357H23.9735V25.1157H25.6798V28.0635C25.6798 28.6016 25.2408 29.0382 24.7051 29.0382H4.74323C2.58373 29.8406 0.818359 28.0729 0.818359 25.9158V4.37027C0.818359 2.09512 2.67813 0.235352 4.95328 0.235352ZM13.2491 19.914L6.62188 13.0225H10.8866V6.61238H15.6092V13.0225H19.8739L13.2491 19.914Z" fill="black"/>
</svg>
