<svg width="13" height="15" viewBox="0 0 13 15" fill="none" xmlns="http://www.w3.org/2000/svg">
<path d="M12.2061 8.92764L7.20609 13.9276C7.01234 14.1245 6.75609 14.2214 6.49984 14.2214C6.24359 14.2214 5.98797 14.1237 5.79297 13.9284L0.792969 8.92842C0.402344 8.53779 0.402344 7.90498 0.792969 7.51436C1.18359 7.12373 1.81641 7.12373 2.20703 7.51436L5.49984 10.8089L5.49984 1.22139C5.49984 0.668574 5.94766 0.249512 6.47172 0.249512C6.99578 0.249512 7.49984 0.668574 7.49984 1.22139L7.49984 10.8089L10.7936 7.51514C11.1842 7.12451 11.817 7.12451 12.2077 7.51514C12.5983 7.90576 12.5967 8.53701 12.2061 8.92764Z" fill="#EB5757"/>
</svg>
