<svg width="13" height="15" viewBox="0 0 13 15" fill="none" xmlns="http://www.w3.org/2000/svg">
<path d="M0.793907 5.54306L5.79391 0.543064C5.98766 0.346189 6.24391 0.249314 6.50016 0.249314C6.75641 0.249314 7.01203 0.34697 7.20703 0.542283L12.207 5.54228C12.5977 5.93291 12.5977 6.56572 12.207 6.95635C11.8164 7.34697 11.1836 7.34697 10.793 6.95635L7.50016 3.66182L7.50016 13.2493C7.50016 13.8021 7.05234 14.2212 6.52828 14.2212C6.00422 14.2212 5.50016 13.8021 5.50016 13.2493L5.50016 3.66182L2.20641 6.95556C1.81578 7.34619 1.18297 7.34619 0.792345 6.95556C0.40172 6.56494 0.403282 5.93369 0.793907 5.54306Z" fill="#6FCF97"/>
</svg>
