<svg width="12" height="17" viewBox="0 0 12 17" fill="none" xmlns="http://www.w3.org/2000/svg">
<g clip-path="url(#clip0_350_529)">
<path d="M0.293907 6.79428L5.29391 1.79428C5.48766 1.59741 5.74391 1.50053 6.00016 1.50053C6.25641 1.50053 6.51203 1.59819 6.70703 1.7935L11.707 6.7935C12.0977 7.18413 12.0977 7.81694 11.707 8.20757C11.3164 8.59819 10.6836 8.59819 10.293 8.20757L7.00016 4.91304L7.00016 14.5005C7.00016 15.0533 6.55234 15.4724 6.02828 15.4724C5.50422 15.4724 5.00016 15.0533 5.00016 14.5005L5.00016 4.91304L1.70641 8.20679C1.31578 8.59741 0.68297 8.59741 0.292345 8.20679C-0.0982802 7.81616 -0.0967181 7.18491 0.293907 6.79428Z" fill="#6FCF97"/>
</g>
<defs>
<clipPath id="clip0_350_529">
<rect width="12" height="16" fill="white" transform="translate(12 16.5005) rotate(-180)"/>
</clipPath>
</defs>
</svg>
