<svg width="12" height="17" viewBox="0 0 12 17" fill="none" xmlns="http://www.w3.org/2000/svg">
<g clip-path="url(#clip0_350_572)">
<path d="M11.7061 10.2067L6.70609 15.2067C6.51234 15.4036 6.25609 15.5004 5.99984 15.5004C5.74359 15.5004 5.48797 15.4028 5.29297 15.2075L0.292969 10.2075C-0.0976562 9.81685 -0.0976562 9.18403 0.292969 8.79341C0.683594 8.40278 1.31641 8.40278 1.70703 8.79341L4.99984 12.0879L4.99984 2.50044C4.99984 1.94763 5.44766 1.52856 5.97172 1.52856C6.49578 1.52856 6.99984 1.94763 6.99984 2.50044L6.99984 12.0879L10.2936 8.79419C10.6842 8.40357 11.317 8.40357 11.7077 8.79419C12.0983 9.18482 12.0967 9.81607 11.7061 10.2067Z" fill="#EB5757"/>
</g>
<defs>
<clipPath id="clip0_350_572">
<rect width="12" height="16" fill="white" transform="translate(0 0.500488)"/>
</clipPath>
</defs>
</svg>
