<svg width="45" height="45" viewBox="0 0 45 45" fill="none" xmlns="http://www.w3.org/2000/svg">
<rect x="0.914062" y="0.777832" width="43.9728" height="43.9728" rx="21.9864" fill="white"/>
<path d="M31.0842 19.5142H30.266C29.8139 19.5142 29.4478 19.8778 29.4478 20.3267V22.7642C29.4478 26.5626 26.15 29.6105 22.2483 29.2327C18.8477 28.9031 16.3569 25.8674 16.3569 22.4747V20.3267C16.3569 19.8778 15.9908 19.5142 15.5387 19.5142H14.7205C14.2685 19.5142 13.9023 19.8778 13.9023 20.3267V22.366C13.9023 26.9181 17.1735 30.976 21.6751 31.5925V33.3267H18.8114C18.3594 33.3267 17.9933 33.6903 17.9933 34.1392V34.9517C17.9933 35.4006 18.3594 35.7642 18.8114 35.7642H26.9933C27.4453 35.7642 27.8114 35.4006 27.8114 34.9517V34.1392C27.8114 33.6903 27.4453 33.3267 26.9933 33.3267H24.1296V31.6118C28.5125 31.0146 31.9023 27.2786 31.9023 22.7642V20.3267C31.9023 19.8778 31.5362 19.5142 31.0842 19.5142ZM22.9023 27.6392C25.6136 27.6392 27.8114 25.4566 27.8114 22.7642H23.448C23.1468 22.7642 22.9023 22.5824 22.9023 22.3579V21.5454C22.9023 21.321 23.1468 21.1392 23.448 21.1392H27.8114V19.5142H23.448C23.1468 19.5142 22.9023 19.3324 22.9023 19.1079V18.2954C22.9023 18.071 23.1468 17.8892 23.448 17.8892H27.8114V16.2642H23.448C23.1468 16.2642 22.9023 16.0824 22.9023 15.8579V15.0454C22.9023 14.821 23.1468 14.6392 23.448 14.6392H27.8114C27.8114 11.9467 25.6136 9.76416 22.9023 9.76416C20.1911 9.76416 17.9933 11.9467 17.9933 14.6392V22.7642C17.9933 25.4566 20.1911 27.6392 22.9023 27.6392Z" fill="black"/>
</svg>
