<svg width="22" height="21" viewBox="0 0 22 21" fill="none" xmlns="http://www.w3.org/2000/svg">
<g clip-path="url(#clip0_1657_634)">
<path d="M8.94975 0H8.95261V0.00122706C11.4232 0.00192823 13.6602 0.983047 15.2791 2.5684C16.8953 4.15148 17.8965 6.33984 17.8981 8.75679H17.8993V8.76258V8.76959H17.8981C17.8972 9.7437 17.7339 10.6812 17.4336 11.5554C17.3833 11.7021 17.3307 11.843 17.2766 11.9776V11.9789C17.0177 12.6204 16.6831 13.227 16.2835 13.7856L21.4903 18.3676L21.4935 18.3704L21.5216 18.396L21.5236 18.3979C21.8176 18.6719 21.9776 19.0388 21.9979 19.4111C22.0175 19.7793 21.9006 20.1558 21.6435 20.4578L21.6416 20.4606L21.6102 20.4962L21.604 20.5023L21.5778 20.5304L21.575 20.5341C21.2948 20.8219 20.9208 20.9783 20.5401 20.9979C20.1647 21.0174 19.7798 20.9032 19.4711 20.6512L19.4684 20.6492L19.4319 20.6186L19.4267 20.6144L14.1012 15.9281C13.9437 16.0367 13.7829 16.14 13.6201 16.2374C13.3994 16.3698 13.1707 16.4944 12.9375 16.6082C11.7381 17.194 10.3828 17.5236 8.94993 17.5236V17.5248H8.94706V17.5236C6.47652 17.5229 4.23908 16.5418 2.62022 14.9564C1.00351 13.3733 0.00286461 11.1846 0.00125327 8.76836H0V8.76258V8.75977H0.00125327C0.00196942 6.3409 1.00404 4.15025 2.62326 2.56525C4.24016 0.983047 6.47526 0.0028047 8.94384 0.00122706V0H8.94975ZM8.95261 1.96504V1.96627H8.94975H8.94384V1.96504C7.03064 1.96627 5.29648 2.72757 4.04106 3.9562C2.78583 5.18483 2.00755 6.88448 2.00702 8.75995H2.00827V8.76275V8.76854H2.00702C2.00827 10.6417 2.78529 12.3387 4.04071 13.5683C5.29558 14.7974 7.03154 15.5594 8.94688 15.5598V15.5585H8.94975H8.95566V15.5598C10.8689 15.5585 12.6023 14.7976 13.8581 13.5686C15.1133 12.34 15.8916 10.6408 15.8919 8.76556H15.8909V8.76275V8.75697H15.8919C15.8909 6.88378 15.1131 5.18589 13.8584 3.95673C12.6036 2.72757 10.8681 1.96557 8.95261 1.96504Z" fill="white"/>
</g>
<defs>
<clipPath id="clip0_1657_634">
<rect width="22" height="21" fill="white"/>
</clipPath>
</defs>
</svg>
